G04 MADE WITH FRITZING*
G04 WWW.FRITZING.ORG*
G04 DOUBLE SIDED*
G04 HOLES PLATED*
G04 CONTOUR ON CENTER OF CONTOUR VECTOR*
%ASAXBY*%
%FSLAX23Y23*%
%MOIN*%
%OFA0B0*%
%SFA1.0B1.0*%
%ADD10C,0.075000*%
%ADD11C,0.196851*%
%ADD12C,0.078000*%
%ADD13C,0.080000*%
%ADD14C,0.024000*%
%LNCOPPER1*%
G90*
G70*
G54D10*
X312Y2621D03*
G54D11*
X144Y2597D03*
X144Y147D03*
X3294Y147D03*
X3294Y2597D03*
G54D12*
X1394Y1947D03*
X1394Y1847D03*
X1394Y1747D03*
X1394Y1647D03*
X1394Y1547D03*
X1394Y1447D03*
X1394Y1347D03*
X1394Y1247D03*
X1394Y1147D03*
X1394Y1047D03*
X1394Y947D03*
X1394Y847D03*
X1394Y747D03*
X1394Y647D03*
X1394Y547D03*
X394Y1947D03*
X394Y1847D03*
X394Y1747D03*
X394Y1647D03*
X394Y1547D03*
X394Y1447D03*
X394Y1347D03*
X394Y1247D03*
X394Y1147D03*
X394Y1047D03*
X394Y947D03*
X394Y847D03*
X394Y747D03*
X394Y647D03*
X394Y547D03*
X2494Y647D03*
X2394Y647D03*
X2294Y647D03*
X2494Y1647D03*
X2394Y1647D03*
X2294Y1647D03*
X2494Y1347D03*
X2394Y1347D03*
X2294Y1347D03*
X2494Y1747D03*
X2394Y1747D03*
X2294Y1747D03*
X2494Y1147D03*
X2394Y1147D03*
X2294Y1147D03*
X2494Y1247D03*
X2394Y1247D03*
X2294Y1247D03*
X2494Y1447D03*
X2394Y1447D03*
X2294Y1447D03*
X2494Y1547D03*
X2394Y1547D03*
X2294Y1547D03*
X2494Y1847D03*
X2394Y1847D03*
X2294Y1847D03*
X2494Y1047D03*
X2394Y1047D03*
X2294Y1047D03*
X2494Y947D03*
X2394Y947D03*
X2294Y947D03*
X2494Y547D03*
X2394Y547D03*
X2294Y547D03*
X2494Y447D03*
X2394Y447D03*
X2294Y447D03*
X2494Y847D03*
X2394Y847D03*
X2294Y847D03*
X2494Y747D03*
X2394Y747D03*
X2294Y747D03*
G54D13*
X3094Y1747D03*
X3094Y1551D03*
X3094Y1247D03*
X3094Y1051D03*
G54D14*
X1494Y496D02*
X1745Y496D01*
D02*
X494Y447D02*
X494Y296D01*
D02*
X2945Y247D02*
X2945Y1047D01*
D02*
X2945Y1047D02*
X3073Y1219D01*
D02*
X2845Y147D02*
X2945Y247D01*
D02*
X645Y147D02*
X2845Y147D01*
D02*
X494Y296D02*
X645Y147D01*
D02*
X415Y526D02*
X494Y447D01*
D02*
X2394Y347D02*
X2394Y417D01*
D02*
X2294Y247D02*
X2394Y347D01*
D02*
X1945Y247D02*
X2294Y247D01*
D02*
X1745Y496D02*
X1945Y247D01*
D02*
X1420Y534D02*
X1494Y496D01*
D02*
X2494Y1317D02*
X2494Y1278D01*
G36*
X224Y2689D02*
X224Y2669D01*
X226Y2669D01*
X226Y2667D01*
X228Y2667D01*
X228Y2663D01*
X230Y2663D01*
X230Y2661D01*
X232Y2661D01*
X232Y2659D01*
X234Y2659D01*
X234Y2655D01*
X236Y2655D01*
X236Y2653D01*
X238Y2653D01*
X238Y2649D01*
X240Y2649D01*
X240Y2645D01*
X242Y2645D01*
X242Y2641D01*
X244Y2641D01*
X244Y2635D01*
X246Y2635D01*
X246Y2629D01*
X248Y2629D01*
X248Y2621D01*
X250Y2621D01*
X250Y2611D01*
X252Y2611D01*
X252Y2585D01*
X250Y2585D01*
X250Y2573D01*
X248Y2573D01*
X248Y2565D01*
X246Y2565D01*
X246Y2559D01*
X244Y2559D01*
X244Y2555D01*
X242Y2555D01*
X242Y2551D01*
X240Y2551D01*
X240Y2547D01*
X238Y2547D01*
X238Y2543D01*
X236Y2543D01*
X236Y2539D01*
X234Y2539D01*
X234Y2537D01*
X232Y2537D01*
X232Y2533D01*
X230Y2533D01*
X230Y2531D01*
X228Y2531D01*
X228Y2529D01*
X226Y2529D01*
X226Y2527D01*
X224Y2527D01*
X224Y2523D01*
X222Y2523D01*
X222Y2521D01*
X220Y2521D01*
X220Y2519D01*
X218Y2519D01*
X218Y2517D01*
X214Y2517D01*
X214Y2515D01*
X212Y2515D01*
X212Y2513D01*
X210Y2513D01*
X210Y2511D01*
X208Y2511D01*
X208Y2509D01*
X204Y2509D01*
X204Y2507D01*
X202Y2507D01*
X202Y2505D01*
X198Y2505D01*
X198Y2503D01*
X194Y2503D01*
X194Y2501D01*
X190Y2501D01*
X190Y2499D01*
X186Y2499D01*
X186Y2497D01*
X182Y2497D01*
X182Y2495D01*
X176Y2495D01*
X176Y2493D01*
X168Y2493D01*
X168Y2491D01*
X156Y2491D01*
X156Y2489D01*
X3280Y2489D01*
X3280Y2491D01*
X3270Y2491D01*
X3270Y2493D01*
X3262Y2493D01*
X3262Y2495D01*
X3256Y2495D01*
X3256Y2497D01*
X3250Y2497D01*
X3250Y2499D01*
X3246Y2499D01*
X3246Y2501D01*
X3242Y2501D01*
X3242Y2503D01*
X3240Y2503D01*
X3240Y2505D01*
X3236Y2505D01*
X3236Y2507D01*
X3232Y2507D01*
X3232Y2509D01*
X3230Y2509D01*
X3230Y2511D01*
X3228Y2511D01*
X3228Y2513D01*
X3224Y2513D01*
X3224Y2515D01*
X3222Y2515D01*
X3222Y2517D01*
X3220Y2517D01*
X3220Y2519D01*
X3218Y2519D01*
X3218Y2521D01*
X3216Y2521D01*
X3216Y2523D01*
X3214Y2523D01*
X3214Y2525D01*
X3212Y2525D01*
X3212Y2527D01*
X3210Y2527D01*
X3210Y2529D01*
X3208Y2529D01*
X3208Y2533D01*
X3206Y2533D01*
X3206Y2535D01*
X3204Y2535D01*
X3204Y2539D01*
X3202Y2539D01*
X3202Y2541D01*
X3200Y2541D01*
X3200Y2545D01*
X3198Y2545D01*
X3198Y2549D01*
X3196Y2549D01*
X3196Y2553D01*
X3194Y2553D01*
X3194Y2557D01*
X3192Y2557D01*
X3192Y2563D01*
X3190Y2563D01*
X3190Y2569D01*
X3188Y2569D01*
X3188Y2579D01*
X3186Y2579D01*
X3186Y2617D01*
X3188Y2617D01*
X3188Y2625D01*
X3190Y2625D01*
X3190Y2633D01*
X3192Y2633D01*
X3192Y2637D01*
X3194Y2637D01*
X3194Y2643D01*
X3196Y2643D01*
X3196Y2647D01*
X3198Y2647D01*
X3198Y2651D01*
X3200Y2651D01*
X3200Y2653D01*
X3202Y2653D01*
X3202Y2657D01*
X3204Y2657D01*
X3204Y2659D01*
X3206Y2659D01*
X3206Y2663D01*
X3208Y2663D01*
X3208Y2665D01*
X3210Y2665D01*
X3210Y2667D01*
X3212Y2667D01*
X3212Y2669D01*
X3214Y2669D01*
X3214Y2689D01*
X224Y2689D01*
G37*
D02*
G36*
X40Y2529D02*
X40Y2489D01*
X130Y2489D01*
X130Y2491D01*
X120Y2491D01*
X120Y2493D01*
X112Y2493D01*
X112Y2495D01*
X106Y2495D01*
X106Y2497D01*
X100Y2497D01*
X100Y2499D01*
X96Y2499D01*
X96Y2501D01*
X92Y2501D01*
X92Y2503D01*
X90Y2503D01*
X90Y2505D01*
X86Y2505D01*
X86Y2507D01*
X82Y2507D01*
X82Y2509D01*
X80Y2509D01*
X80Y2511D01*
X78Y2511D01*
X78Y2513D01*
X74Y2513D01*
X74Y2515D01*
X72Y2515D01*
X72Y2517D01*
X70Y2517D01*
X70Y2519D01*
X68Y2519D01*
X68Y2521D01*
X66Y2521D01*
X66Y2523D01*
X64Y2523D01*
X64Y2525D01*
X62Y2525D01*
X62Y2527D01*
X60Y2527D01*
X60Y2529D01*
X40Y2529D01*
G37*
D02*
G36*
X3364Y2517D02*
X3364Y2515D01*
X3362Y2515D01*
X3362Y2513D01*
X3360Y2513D01*
X3360Y2511D01*
X3358Y2511D01*
X3358Y2509D01*
X3354Y2509D01*
X3354Y2507D01*
X3352Y2507D01*
X3352Y2505D01*
X3348Y2505D01*
X3348Y2503D01*
X3344Y2503D01*
X3344Y2501D01*
X3340Y2501D01*
X3340Y2499D01*
X3336Y2499D01*
X3336Y2497D01*
X3332Y2497D01*
X3332Y2495D01*
X3326Y2495D01*
X3326Y2493D01*
X3318Y2493D01*
X3318Y2491D01*
X3306Y2491D01*
X3306Y2489D01*
X3384Y2489D01*
X3384Y2517D01*
X3364Y2517D01*
G37*
D02*
G36*
X40Y2489D02*
X40Y2487D01*
X3384Y2487D01*
X3384Y2489D01*
X40Y2489D01*
G37*
D02*
G36*
X40Y2489D02*
X40Y2487D01*
X3384Y2487D01*
X3384Y2489D01*
X40Y2489D01*
G37*
D02*
G36*
X40Y2489D02*
X40Y2487D01*
X3384Y2487D01*
X3384Y2489D01*
X40Y2489D01*
G37*
D02*
G36*
X40Y2487D02*
X40Y1997D01*
X1400Y1997D01*
X1400Y1995D01*
X1408Y1995D01*
X1408Y1993D01*
X1414Y1993D01*
X1414Y1991D01*
X1418Y1991D01*
X1418Y1989D01*
X1420Y1989D01*
X1420Y1987D01*
X1424Y1987D01*
X1424Y1985D01*
X1426Y1985D01*
X1426Y1983D01*
X1428Y1983D01*
X1428Y1981D01*
X1430Y1981D01*
X1430Y1979D01*
X1432Y1979D01*
X1432Y1977D01*
X1434Y1977D01*
X1434Y1973D01*
X1436Y1973D01*
X1436Y1969D01*
X1438Y1969D01*
X1438Y1965D01*
X1440Y1965D01*
X1440Y1959D01*
X1442Y1959D01*
X1442Y1937D01*
X1440Y1937D01*
X1440Y1929D01*
X1438Y1929D01*
X1438Y1925D01*
X1436Y1925D01*
X1436Y1921D01*
X1434Y1921D01*
X1434Y1919D01*
X1432Y1919D01*
X1432Y1917D01*
X1430Y1917D01*
X1430Y1913D01*
X1428Y1913D01*
X1428Y1911D01*
X1424Y1911D01*
X1424Y1909D01*
X1422Y1909D01*
X1422Y1907D01*
X1420Y1907D01*
X1420Y1897D01*
X2500Y1897D01*
X2500Y1895D01*
X2508Y1895D01*
X2508Y1893D01*
X2514Y1893D01*
X2514Y1891D01*
X2518Y1891D01*
X2518Y1889D01*
X2520Y1889D01*
X2520Y1887D01*
X2524Y1887D01*
X2524Y1885D01*
X2526Y1885D01*
X2526Y1883D01*
X2528Y1883D01*
X2528Y1881D01*
X2530Y1881D01*
X2530Y1879D01*
X2532Y1879D01*
X2532Y1877D01*
X2534Y1877D01*
X2534Y1873D01*
X2536Y1873D01*
X2536Y1869D01*
X2538Y1869D01*
X2538Y1865D01*
X2540Y1865D01*
X2540Y1859D01*
X2542Y1859D01*
X2542Y1837D01*
X2540Y1837D01*
X2540Y1829D01*
X2538Y1829D01*
X2538Y1825D01*
X2536Y1825D01*
X2536Y1821D01*
X2534Y1821D01*
X2534Y1819D01*
X2532Y1819D01*
X2532Y1817D01*
X2530Y1817D01*
X2530Y1813D01*
X2528Y1813D01*
X2528Y1811D01*
X2524Y1811D01*
X2524Y1809D01*
X2522Y1809D01*
X2522Y1807D01*
X2520Y1807D01*
X2520Y1797D01*
X3106Y1797D01*
X3106Y1795D01*
X3112Y1795D01*
X3112Y1793D01*
X3116Y1793D01*
X3116Y1791D01*
X3120Y1791D01*
X3120Y1789D01*
X3122Y1789D01*
X3122Y1787D01*
X3126Y1787D01*
X3126Y1785D01*
X3128Y1785D01*
X3128Y1783D01*
X3130Y1783D01*
X3130Y1781D01*
X3132Y1781D01*
X3132Y1777D01*
X3134Y1777D01*
X3134Y1775D01*
X3136Y1775D01*
X3136Y1771D01*
X3138Y1771D01*
X3138Y1769D01*
X3140Y1769D01*
X3140Y1763D01*
X3142Y1763D01*
X3142Y1753D01*
X3144Y1753D01*
X3144Y1741D01*
X3142Y1741D01*
X3142Y1733D01*
X3140Y1733D01*
X3140Y1727D01*
X3138Y1727D01*
X3138Y1723D01*
X3136Y1723D01*
X3136Y1719D01*
X3134Y1719D01*
X3134Y1717D01*
X3132Y1717D01*
X3132Y1715D01*
X3130Y1715D01*
X3130Y1713D01*
X3128Y1713D01*
X3128Y1711D01*
X3126Y1711D01*
X3126Y1709D01*
X3124Y1709D01*
X3124Y1707D01*
X3122Y1707D01*
X3122Y1705D01*
X3118Y1705D01*
X3118Y1703D01*
X3114Y1703D01*
X3114Y1701D01*
X3108Y1701D01*
X3108Y1699D01*
X3100Y1699D01*
X3100Y1697D01*
X3384Y1697D01*
X3384Y2487D01*
X40Y2487D01*
G37*
D02*
G36*
X40Y1997D02*
X40Y255D01*
X162Y255D01*
X162Y253D01*
X172Y253D01*
X172Y251D01*
X178Y251D01*
X178Y249D01*
X184Y249D01*
X184Y247D01*
X188Y247D01*
X188Y245D01*
X192Y245D01*
X192Y243D01*
X196Y243D01*
X196Y241D01*
X200Y241D01*
X200Y239D01*
X202Y239D01*
X202Y237D01*
X206Y237D01*
X206Y235D01*
X208Y235D01*
X208Y233D01*
X212Y233D01*
X212Y231D01*
X214Y231D01*
X214Y229D01*
X216Y229D01*
X216Y227D01*
X218Y227D01*
X218Y225D01*
X220Y225D01*
X220Y223D01*
X222Y223D01*
X222Y221D01*
X224Y221D01*
X224Y219D01*
X226Y219D01*
X226Y217D01*
X228Y217D01*
X228Y213D01*
X230Y213D01*
X230Y211D01*
X232Y211D01*
X232Y209D01*
X234Y209D01*
X234Y205D01*
X236Y205D01*
X236Y203D01*
X238Y203D01*
X238Y199D01*
X240Y199D01*
X240Y195D01*
X242Y195D01*
X242Y191D01*
X244Y191D01*
X244Y185D01*
X246Y185D01*
X246Y179D01*
X248Y179D01*
X248Y171D01*
X250Y171D01*
X250Y161D01*
X252Y161D01*
X252Y135D01*
X250Y135D01*
X250Y125D01*
X642Y125D01*
X642Y127D01*
X636Y127D01*
X636Y129D01*
X632Y129D01*
X632Y131D01*
X630Y131D01*
X630Y133D01*
X628Y133D01*
X628Y135D01*
X626Y135D01*
X626Y137D01*
X624Y137D01*
X624Y139D01*
X622Y139D01*
X622Y141D01*
X620Y141D01*
X620Y143D01*
X618Y143D01*
X618Y145D01*
X616Y145D01*
X616Y147D01*
X614Y147D01*
X614Y149D01*
X612Y149D01*
X612Y151D01*
X610Y151D01*
X610Y153D01*
X608Y153D01*
X608Y155D01*
X606Y155D01*
X606Y157D01*
X604Y157D01*
X604Y159D01*
X602Y159D01*
X602Y161D01*
X600Y161D01*
X600Y163D01*
X596Y163D01*
X596Y165D01*
X594Y165D01*
X594Y167D01*
X592Y167D01*
X592Y169D01*
X590Y169D01*
X590Y171D01*
X588Y171D01*
X588Y173D01*
X586Y173D01*
X586Y175D01*
X584Y175D01*
X584Y177D01*
X582Y177D01*
X582Y179D01*
X580Y179D01*
X580Y181D01*
X578Y181D01*
X578Y183D01*
X576Y183D01*
X576Y185D01*
X574Y185D01*
X574Y187D01*
X572Y187D01*
X572Y189D01*
X570Y189D01*
X570Y191D01*
X568Y191D01*
X568Y193D01*
X566Y193D01*
X566Y195D01*
X564Y195D01*
X564Y197D01*
X562Y197D01*
X562Y199D01*
X560Y199D01*
X560Y201D01*
X558Y201D01*
X558Y203D01*
X556Y203D01*
X556Y205D01*
X554Y205D01*
X554Y207D01*
X552Y207D01*
X552Y209D01*
X550Y209D01*
X550Y211D01*
X548Y211D01*
X548Y213D01*
X546Y213D01*
X546Y215D01*
X544Y215D01*
X544Y217D01*
X542Y217D01*
X542Y219D01*
X540Y219D01*
X540Y221D01*
X538Y221D01*
X538Y223D01*
X536Y223D01*
X536Y225D01*
X534Y225D01*
X534Y227D01*
X532Y227D01*
X532Y229D01*
X530Y229D01*
X530Y231D01*
X528Y231D01*
X528Y233D01*
X526Y233D01*
X526Y235D01*
X524Y235D01*
X524Y237D01*
X522Y237D01*
X522Y239D01*
X520Y239D01*
X520Y241D01*
X518Y241D01*
X518Y243D01*
X514Y243D01*
X514Y245D01*
X512Y245D01*
X512Y247D01*
X510Y247D01*
X510Y249D01*
X508Y249D01*
X508Y251D01*
X506Y251D01*
X506Y253D01*
X504Y253D01*
X504Y255D01*
X502Y255D01*
X502Y257D01*
X500Y257D01*
X500Y259D01*
X498Y259D01*
X498Y261D01*
X496Y261D01*
X496Y263D01*
X494Y263D01*
X494Y265D01*
X492Y265D01*
X492Y267D01*
X490Y267D01*
X490Y269D01*
X488Y269D01*
X488Y271D01*
X486Y271D01*
X486Y273D01*
X484Y273D01*
X484Y275D01*
X482Y275D01*
X482Y277D01*
X480Y277D01*
X480Y279D01*
X478Y279D01*
X478Y281D01*
X476Y281D01*
X476Y283D01*
X474Y283D01*
X474Y287D01*
X472Y287D01*
X472Y439D01*
X470Y439D01*
X470Y441D01*
X468Y441D01*
X468Y443D01*
X466Y443D01*
X466Y445D01*
X464Y445D01*
X464Y447D01*
X462Y447D01*
X462Y449D01*
X460Y449D01*
X460Y451D01*
X458Y451D01*
X458Y453D01*
X456Y453D01*
X456Y455D01*
X454Y455D01*
X454Y457D01*
X452Y457D01*
X452Y459D01*
X450Y459D01*
X450Y461D01*
X448Y461D01*
X448Y463D01*
X446Y463D01*
X446Y465D01*
X444Y465D01*
X444Y467D01*
X442Y467D01*
X442Y469D01*
X440Y469D01*
X440Y471D01*
X438Y471D01*
X438Y473D01*
X436Y473D01*
X436Y475D01*
X434Y475D01*
X434Y477D01*
X432Y477D01*
X432Y479D01*
X430Y479D01*
X430Y481D01*
X428Y481D01*
X428Y483D01*
X426Y483D01*
X426Y485D01*
X424Y485D01*
X424Y487D01*
X422Y487D01*
X422Y489D01*
X420Y489D01*
X420Y491D01*
X418Y491D01*
X418Y493D01*
X416Y493D01*
X416Y495D01*
X414Y495D01*
X414Y497D01*
X412Y497D01*
X412Y499D01*
X382Y499D01*
X382Y501D01*
X376Y501D01*
X376Y503D01*
X372Y503D01*
X372Y505D01*
X368Y505D01*
X368Y507D01*
X364Y507D01*
X364Y509D01*
X362Y509D01*
X362Y511D01*
X360Y511D01*
X360Y513D01*
X358Y513D01*
X358Y515D01*
X356Y515D01*
X356Y517D01*
X354Y517D01*
X354Y521D01*
X352Y521D01*
X352Y523D01*
X350Y523D01*
X350Y527D01*
X348Y527D01*
X348Y533D01*
X346Y533D01*
X346Y541D01*
X344Y541D01*
X344Y553D01*
X346Y553D01*
X346Y563D01*
X348Y563D01*
X348Y567D01*
X350Y567D01*
X350Y571D01*
X352Y571D01*
X352Y575D01*
X354Y575D01*
X354Y577D01*
X356Y577D01*
X356Y579D01*
X358Y579D01*
X358Y583D01*
X362Y583D01*
X362Y585D01*
X364Y585D01*
X364Y587D01*
X366Y587D01*
X366Y607D01*
X364Y607D01*
X364Y609D01*
X362Y609D01*
X362Y611D01*
X360Y611D01*
X360Y613D01*
X358Y613D01*
X358Y615D01*
X356Y615D01*
X356Y617D01*
X354Y617D01*
X354Y621D01*
X352Y621D01*
X352Y623D01*
X350Y623D01*
X350Y627D01*
X348Y627D01*
X348Y633D01*
X346Y633D01*
X346Y641D01*
X344Y641D01*
X344Y653D01*
X346Y653D01*
X346Y663D01*
X348Y663D01*
X348Y667D01*
X350Y667D01*
X350Y671D01*
X352Y671D01*
X352Y675D01*
X354Y675D01*
X354Y677D01*
X356Y677D01*
X356Y679D01*
X358Y679D01*
X358Y683D01*
X362Y683D01*
X362Y685D01*
X364Y685D01*
X364Y687D01*
X366Y687D01*
X366Y707D01*
X364Y707D01*
X364Y709D01*
X362Y709D01*
X362Y711D01*
X360Y711D01*
X360Y713D01*
X358Y713D01*
X358Y715D01*
X356Y715D01*
X356Y717D01*
X354Y717D01*
X354Y721D01*
X352Y721D01*
X352Y723D01*
X350Y723D01*
X350Y727D01*
X348Y727D01*
X348Y733D01*
X346Y733D01*
X346Y741D01*
X344Y741D01*
X344Y753D01*
X346Y753D01*
X346Y763D01*
X348Y763D01*
X348Y767D01*
X350Y767D01*
X350Y771D01*
X352Y771D01*
X352Y775D01*
X354Y775D01*
X354Y777D01*
X356Y777D01*
X356Y779D01*
X358Y779D01*
X358Y783D01*
X362Y783D01*
X362Y785D01*
X364Y785D01*
X364Y787D01*
X366Y787D01*
X366Y807D01*
X364Y807D01*
X364Y809D01*
X362Y809D01*
X362Y811D01*
X360Y811D01*
X360Y813D01*
X358Y813D01*
X358Y815D01*
X356Y815D01*
X356Y817D01*
X354Y817D01*
X354Y821D01*
X352Y821D01*
X352Y823D01*
X350Y823D01*
X350Y827D01*
X348Y827D01*
X348Y833D01*
X346Y833D01*
X346Y841D01*
X344Y841D01*
X344Y853D01*
X346Y853D01*
X346Y863D01*
X348Y863D01*
X348Y867D01*
X350Y867D01*
X350Y871D01*
X352Y871D01*
X352Y875D01*
X354Y875D01*
X354Y877D01*
X356Y877D01*
X356Y879D01*
X358Y879D01*
X358Y883D01*
X362Y883D01*
X362Y885D01*
X364Y885D01*
X364Y887D01*
X366Y887D01*
X366Y907D01*
X364Y907D01*
X364Y909D01*
X362Y909D01*
X362Y911D01*
X360Y911D01*
X360Y913D01*
X358Y913D01*
X358Y915D01*
X356Y915D01*
X356Y917D01*
X354Y917D01*
X354Y921D01*
X352Y921D01*
X352Y923D01*
X350Y923D01*
X350Y927D01*
X348Y927D01*
X348Y933D01*
X346Y933D01*
X346Y941D01*
X344Y941D01*
X344Y953D01*
X346Y953D01*
X346Y963D01*
X348Y963D01*
X348Y967D01*
X350Y967D01*
X350Y971D01*
X352Y971D01*
X352Y975D01*
X354Y975D01*
X354Y977D01*
X356Y977D01*
X356Y979D01*
X358Y979D01*
X358Y983D01*
X362Y983D01*
X362Y985D01*
X364Y985D01*
X364Y987D01*
X366Y987D01*
X366Y1007D01*
X364Y1007D01*
X364Y1009D01*
X362Y1009D01*
X362Y1011D01*
X360Y1011D01*
X360Y1013D01*
X358Y1013D01*
X358Y1015D01*
X356Y1015D01*
X356Y1017D01*
X354Y1017D01*
X354Y1021D01*
X352Y1021D01*
X352Y1023D01*
X350Y1023D01*
X350Y1027D01*
X348Y1027D01*
X348Y1033D01*
X346Y1033D01*
X346Y1041D01*
X344Y1041D01*
X344Y1053D01*
X346Y1053D01*
X346Y1063D01*
X348Y1063D01*
X348Y1067D01*
X350Y1067D01*
X350Y1071D01*
X352Y1071D01*
X352Y1075D01*
X354Y1075D01*
X354Y1077D01*
X356Y1077D01*
X356Y1079D01*
X358Y1079D01*
X358Y1083D01*
X362Y1083D01*
X362Y1085D01*
X364Y1085D01*
X364Y1087D01*
X366Y1087D01*
X366Y1107D01*
X364Y1107D01*
X364Y1109D01*
X362Y1109D01*
X362Y1111D01*
X360Y1111D01*
X360Y1113D01*
X358Y1113D01*
X358Y1115D01*
X356Y1115D01*
X356Y1117D01*
X354Y1117D01*
X354Y1121D01*
X352Y1121D01*
X352Y1123D01*
X350Y1123D01*
X350Y1127D01*
X348Y1127D01*
X348Y1133D01*
X346Y1133D01*
X346Y1141D01*
X344Y1141D01*
X344Y1153D01*
X346Y1153D01*
X346Y1163D01*
X348Y1163D01*
X348Y1167D01*
X350Y1167D01*
X350Y1171D01*
X352Y1171D01*
X352Y1175D01*
X354Y1175D01*
X354Y1177D01*
X356Y1177D01*
X356Y1179D01*
X358Y1179D01*
X358Y1183D01*
X362Y1183D01*
X362Y1185D01*
X364Y1185D01*
X364Y1187D01*
X366Y1187D01*
X366Y1207D01*
X364Y1207D01*
X364Y1209D01*
X362Y1209D01*
X362Y1211D01*
X360Y1211D01*
X360Y1213D01*
X358Y1213D01*
X358Y1215D01*
X356Y1215D01*
X356Y1217D01*
X354Y1217D01*
X354Y1221D01*
X352Y1221D01*
X352Y1223D01*
X350Y1223D01*
X350Y1227D01*
X348Y1227D01*
X348Y1233D01*
X346Y1233D01*
X346Y1241D01*
X344Y1241D01*
X344Y1253D01*
X346Y1253D01*
X346Y1263D01*
X348Y1263D01*
X348Y1267D01*
X350Y1267D01*
X350Y1271D01*
X352Y1271D01*
X352Y1275D01*
X354Y1275D01*
X354Y1277D01*
X356Y1277D01*
X356Y1279D01*
X358Y1279D01*
X358Y1283D01*
X362Y1283D01*
X362Y1285D01*
X364Y1285D01*
X364Y1287D01*
X366Y1287D01*
X366Y1307D01*
X364Y1307D01*
X364Y1309D01*
X362Y1309D01*
X362Y1311D01*
X360Y1311D01*
X360Y1313D01*
X358Y1313D01*
X358Y1315D01*
X356Y1315D01*
X356Y1317D01*
X354Y1317D01*
X354Y1321D01*
X352Y1321D01*
X352Y1323D01*
X350Y1323D01*
X350Y1327D01*
X348Y1327D01*
X348Y1333D01*
X346Y1333D01*
X346Y1341D01*
X344Y1341D01*
X344Y1353D01*
X346Y1353D01*
X346Y1363D01*
X348Y1363D01*
X348Y1367D01*
X350Y1367D01*
X350Y1371D01*
X352Y1371D01*
X352Y1375D01*
X354Y1375D01*
X354Y1377D01*
X356Y1377D01*
X356Y1379D01*
X358Y1379D01*
X358Y1383D01*
X362Y1383D01*
X362Y1385D01*
X364Y1385D01*
X364Y1387D01*
X366Y1387D01*
X366Y1407D01*
X364Y1407D01*
X364Y1409D01*
X362Y1409D01*
X362Y1411D01*
X360Y1411D01*
X360Y1413D01*
X358Y1413D01*
X358Y1415D01*
X356Y1415D01*
X356Y1417D01*
X354Y1417D01*
X354Y1421D01*
X352Y1421D01*
X352Y1423D01*
X350Y1423D01*
X350Y1427D01*
X348Y1427D01*
X348Y1433D01*
X346Y1433D01*
X346Y1441D01*
X344Y1441D01*
X344Y1453D01*
X346Y1453D01*
X346Y1463D01*
X348Y1463D01*
X348Y1467D01*
X350Y1467D01*
X350Y1471D01*
X352Y1471D01*
X352Y1475D01*
X354Y1475D01*
X354Y1477D01*
X356Y1477D01*
X356Y1479D01*
X358Y1479D01*
X358Y1483D01*
X362Y1483D01*
X362Y1485D01*
X364Y1485D01*
X364Y1487D01*
X366Y1487D01*
X366Y1507D01*
X364Y1507D01*
X364Y1509D01*
X362Y1509D01*
X362Y1511D01*
X360Y1511D01*
X360Y1513D01*
X358Y1513D01*
X358Y1515D01*
X356Y1515D01*
X356Y1517D01*
X354Y1517D01*
X354Y1521D01*
X352Y1521D01*
X352Y1523D01*
X350Y1523D01*
X350Y1527D01*
X348Y1527D01*
X348Y1533D01*
X346Y1533D01*
X346Y1541D01*
X344Y1541D01*
X344Y1553D01*
X346Y1553D01*
X346Y1563D01*
X348Y1563D01*
X348Y1567D01*
X350Y1567D01*
X350Y1571D01*
X352Y1571D01*
X352Y1575D01*
X354Y1575D01*
X354Y1577D01*
X356Y1577D01*
X356Y1579D01*
X358Y1579D01*
X358Y1583D01*
X362Y1583D01*
X362Y1585D01*
X364Y1585D01*
X364Y1587D01*
X366Y1587D01*
X366Y1607D01*
X364Y1607D01*
X364Y1609D01*
X362Y1609D01*
X362Y1611D01*
X360Y1611D01*
X360Y1613D01*
X358Y1613D01*
X358Y1615D01*
X356Y1615D01*
X356Y1617D01*
X354Y1617D01*
X354Y1621D01*
X352Y1621D01*
X352Y1623D01*
X350Y1623D01*
X350Y1627D01*
X348Y1627D01*
X348Y1633D01*
X346Y1633D01*
X346Y1641D01*
X344Y1641D01*
X344Y1653D01*
X346Y1653D01*
X346Y1663D01*
X348Y1663D01*
X348Y1667D01*
X350Y1667D01*
X350Y1671D01*
X352Y1671D01*
X352Y1675D01*
X354Y1675D01*
X354Y1677D01*
X356Y1677D01*
X356Y1679D01*
X358Y1679D01*
X358Y1683D01*
X362Y1683D01*
X362Y1685D01*
X364Y1685D01*
X364Y1687D01*
X366Y1687D01*
X366Y1707D01*
X364Y1707D01*
X364Y1709D01*
X362Y1709D01*
X362Y1711D01*
X360Y1711D01*
X360Y1713D01*
X358Y1713D01*
X358Y1715D01*
X356Y1715D01*
X356Y1717D01*
X354Y1717D01*
X354Y1721D01*
X352Y1721D01*
X352Y1723D01*
X350Y1723D01*
X350Y1727D01*
X348Y1727D01*
X348Y1733D01*
X346Y1733D01*
X346Y1741D01*
X344Y1741D01*
X344Y1753D01*
X346Y1753D01*
X346Y1763D01*
X348Y1763D01*
X348Y1767D01*
X350Y1767D01*
X350Y1771D01*
X352Y1771D01*
X352Y1775D01*
X354Y1775D01*
X354Y1777D01*
X356Y1777D01*
X356Y1779D01*
X358Y1779D01*
X358Y1783D01*
X362Y1783D01*
X362Y1785D01*
X364Y1785D01*
X364Y1787D01*
X366Y1787D01*
X366Y1807D01*
X364Y1807D01*
X364Y1809D01*
X362Y1809D01*
X362Y1811D01*
X360Y1811D01*
X360Y1813D01*
X358Y1813D01*
X358Y1815D01*
X356Y1815D01*
X356Y1817D01*
X354Y1817D01*
X354Y1821D01*
X352Y1821D01*
X352Y1823D01*
X350Y1823D01*
X350Y1827D01*
X348Y1827D01*
X348Y1833D01*
X346Y1833D01*
X346Y1841D01*
X344Y1841D01*
X344Y1853D01*
X346Y1853D01*
X346Y1863D01*
X348Y1863D01*
X348Y1867D01*
X350Y1867D01*
X350Y1871D01*
X352Y1871D01*
X352Y1875D01*
X354Y1875D01*
X354Y1877D01*
X356Y1877D01*
X356Y1879D01*
X358Y1879D01*
X358Y1883D01*
X362Y1883D01*
X362Y1885D01*
X364Y1885D01*
X364Y1887D01*
X366Y1887D01*
X366Y1907D01*
X364Y1907D01*
X364Y1909D01*
X362Y1909D01*
X362Y1911D01*
X360Y1911D01*
X360Y1913D01*
X358Y1913D01*
X358Y1915D01*
X356Y1915D01*
X356Y1917D01*
X354Y1917D01*
X354Y1921D01*
X352Y1921D01*
X352Y1923D01*
X350Y1923D01*
X350Y1927D01*
X348Y1927D01*
X348Y1933D01*
X346Y1933D01*
X346Y1941D01*
X344Y1941D01*
X344Y1953D01*
X346Y1953D01*
X346Y1963D01*
X348Y1963D01*
X348Y1967D01*
X350Y1967D01*
X350Y1971D01*
X352Y1971D01*
X352Y1975D01*
X354Y1975D01*
X354Y1977D01*
X356Y1977D01*
X356Y1979D01*
X358Y1979D01*
X358Y1983D01*
X362Y1983D01*
X362Y1985D01*
X364Y1985D01*
X364Y1987D01*
X366Y1987D01*
X366Y1989D01*
X370Y1989D01*
X370Y1991D01*
X374Y1991D01*
X374Y1993D01*
X378Y1993D01*
X378Y1995D01*
X388Y1995D01*
X388Y1997D01*
X40Y1997D01*
G37*
D02*
G36*
X400Y1997D02*
X400Y1995D01*
X408Y1995D01*
X408Y1993D01*
X414Y1993D01*
X414Y1991D01*
X418Y1991D01*
X418Y1989D01*
X420Y1989D01*
X420Y1987D01*
X424Y1987D01*
X424Y1985D01*
X426Y1985D01*
X426Y1983D01*
X428Y1983D01*
X428Y1981D01*
X430Y1981D01*
X430Y1979D01*
X432Y1979D01*
X432Y1977D01*
X434Y1977D01*
X434Y1973D01*
X436Y1973D01*
X436Y1969D01*
X438Y1969D01*
X438Y1965D01*
X440Y1965D01*
X440Y1959D01*
X442Y1959D01*
X442Y1937D01*
X440Y1937D01*
X440Y1929D01*
X438Y1929D01*
X438Y1925D01*
X436Y1925D01*
X436Y1921D01*
X434Y1921D01*
X434Y1919D01*
X432Y1919D01*
X432Y1917D01*
X430Y1917D01*
X430Y1913D01*
X428Y1913D01*
X428Y1911D01*
X424Y1911D01*
X424Y1909D01*
X422Y1909D01*
X422Y1907D01*
X420Y1907D01*
X420Y1887D01*
X424Y1887D01*
X424Y1885D01*
X426Y1885D01*
X426Y1883D01*
X428Y1883D01*
X428Y1881D01*
X430Y1881D01*
X430Y1879D01*
X432Y1879D01*
X432Y1877D01*
X434Y1877D01*
X434Y1873D01*
X436Y1873D01*
X436Y1869D01*
X438Y1869D01*
X438Y1865D01*
X440Y1865D01*
X440Y1859D01*
X442Y1859D01*
X442Y1837D01*
X440Y1837D01*
X440Y1829D01*
X438Y1829D01*
X438Y1825D01*
X436Y1825D01*
X436Y1821D01*
X434Y1821D01*
X434Y1819D01*
X432Y1819D01*
X432Y1817D01*
X430Y1817D01*
X430Y1813D01*
X428Y1813D01*
X428Y1811D01*
X424Y1811D01*
X424Y1809D01*
X422Y1809D01*
X422Y1807D01*
X420Y1807D01*
X420Y1787D01*
X424Y1787D01*
X424Y1785D01*
X426Y1785D01*
X426Y1783D01*
X428Y1783D01*
X428Y1781D01*
X430Y1781D01*
X430Y1779D01*
X432Y1779D01*
X432Y1777D01*
X434Y1777D01*
X434Y1773D01*
X436Y1773D01*
X436Y1769D01*
X438Y1769D01*
X438Y1765D01*
X440Y1765D01*
X440Y1759D01*
X442Y1759D01*
X442Y1737D01*
X440Y1737D01*
X440Y1729D01*
X438Y1729D01*
X438Y1725D01*
X436Y1725D01*
X436Y1721D01*
X434Y1721D01*
X434Y1719D01*
X432Y1719D01*
X432Y1717D01*
X430Y1717D01*
X430Y1713D01*
X428Y1713D01*
X428Y1711D01*
X424Y1711D01*
X424Y1709D01*
X422Y1709D01*
X422Y1707D01*
X420Y1707D01*
X420Y1687D01*
X424Y1687D01*
X424Y1685D01*
X426Y1685D01*
X426Y1683D01*
X428Y1683D01*
X428Y1681D01*
X430Y1681D01*
X430Y1679D01*
X432Y1679D01*
X432Y1677D01*
X434Y1677D01*
X434Y1673D01*
X436Y1673D01*
X436Y1669D01*
X438Y1669D01*
X438Y1665D01*
X440Y1665D01*
X440Y1659D01*
X442Y1659D01*
X442Y1637D01*
X440Y1637D01*
X440Y1629D01*
X438Y1629D01*
X438Y1625D01*
X436Y1625D01*
X436Y1621D01*
X434Y1621D01*
X434Y1619D01*
X432Y1619D01*
X432Y1617D01*
X430Y1617D01*
X430Y1613D01*
X428Y1613D01*
X428Y1611D01*
X424Y1611D01*
X424Y1609D01*
X422Y1609D01*
X422Y1607D01*
X420Y1607D01*
X420Y1587D01*
X424Y1587D01*
X424Y1585D01*
X426Y1585D01*
X426Y1583D01*
X428Y1583D01*
X428Y1581D01*
X430Y1581D01*
X430Y1579D01*
X432Y1579D01*
X432Y1577D01*
X434Y1577D01*
X434Y1573D01*
X436Y1573D01*
X436Y1569D01*
X438Y1569D01*
X438Y1565D01*
X440Y1565D01*
X440Y1559D01*
X442Y1559D01*
X442Y1537D01*
X440Y1537D01*
X440Y1529D01*
X438Y1529D01*
X438Y1525D01*
X436Y1525D01*
X436Y1521D01*
X434Y1521D01*
X434Y1519D01*
X432Y1519D01*
X432Y1517D01*
X430Y1517D01*
X430Y1513D01*
X428Y1513D01*
X428Y1511D01*
X424Y1511D01*
X424Y1509D01*
X422Y1509D01*
X422Y1507D01*
X420Y1507D01*
X420Y1487D01*
X424Y1487D01*
X424Y1485D01*
X426Y1485D01*
X426Y1483D01*
X428Y1483D01*
X428Y1481D01*
X430Y1481D01*
X430Y1479D01*
X432Y1479D01*
X432Y1477D01*
X434Y1477D01*
X434Y1473D01*
X436Y1473D01*
X436Y1469D01*
X438Y1469D01*
X438Y1465D01*
X440Y1465D01*
X440Y1459D01*
X442Y1459D01*
X442Y1437D01*
X440Y1437D01*
X440Y1429D01*
X438Y1429D01*
X438Y1425D01*
X436Y1425D01*
X436Y1421D01*
X434Y1421D01*
X434Y1419D01*
X432Y1419D01*
X432Y1417D01*
X430Y1417D01*
X430Y1413D01*
X428Y1413D01*
X428Y1411D01*
X424Y1411D01*
X424Y1409D01*
X422Y1409D01*
X422Y1407D01*
X420Y1407D01*
X420Y1387D01*
X424Y1387D01*
X424Y1385D01*
X426Y1385D01*
X426Y1383D01*
X428Y1383D01*
X428Y1381D01*
X430Y1381D01*
X430Y1379D01*
X432Y1379D01*
X432Y1377D01*
X434Y1377D01*
X434Y1373D01*
X436Y1373D01*
X436Y1369D01*
X438Y1369D01*
X438Y1365D01*
X440Y1365D01*
X440Y1359D01*
X442Y1359D01*
X442Y1337D01*
X440Y1337D01*
X440Y1329D01*
X438Y1329D01*
X438Y1325D01*
X436Y1325D01*
X436Y1321D01*
X434Y1321D01*
X434Y1319D01*
X432Y1319D01*
X432Y1317D01*
X430Y1317D01*
X430Y1313D01*
X428Y1313D01*
X428Y1311D01*
X424Y1311D01*
X424Y1309D01*
X422Y1309D01*
X422Y1307D01*
X420Y1307D01*
X420Y1287D01*
X424Y1287D01*
X424Y1285D01*
X426Y1285D01*
X426Y1283D01*
X428Y1283D01*
X428Y1281D01*
X430Y1281D01*
X430Y1279D01*
X432Y1279D01*
X432Y1277D01*
X434Y1277D01*
X434Y1273D01*
X436Y1273D01*
X436Y1269D01*
X438Y1269D01*
X438Y1265D01*
X440Y1265D01*
X440Y1259D01*
X442Y1259D01*
X442Y1237D01*
X440Y1237D01*
X440Y1229D01*
X438Y1229D01*
X438Y1225D01*
X436Y1225D01*
X436Y1221D01*
X434Y1221D01*
X434Y1219D01*
X432Y1219D01*
X432Y1217D01*
X430Y1217D01*
X430Y1213D01*
X428Y1213D01*
X428Y1211D01*
X424Y1211D01*
X424Y1209D01*
X422Y1209D01*
X422Y1207D01*
X420Y1207D01*
X420Y1187D01*
X424Y1187D01*
X424Y1185D01*
X426Y1185D01*
X426Y1183D01*
X428Y1183D01*
X428Y1181D01*
X430Y1181D01*
X430Y1179D01*
X432Y1179D01*
X432Y1177D01*
X434Y1177D01*
X434Y1173D01*
X436Y1173D01*
X436Y1169D01*
X438Y1169D01*
X438Y1165D01*
X440Y1165D01*
X440Y1159D01*
X442Y1159D01*
X442Y1137D01*
X440Y1137D01*
X440Y1129D01*
X438Y1129D01*
X438Y1125D01*
X436Y1125D01*
X436Y1121D01*
X434Y1121D01*
X434Y1119D01*
X432Y1119D01*
X432Y1117D01*
X430Y1117D01*
X430Y1113D01*
X428Y1113D01*
X428Y1111D01*
X424Y1111D01*
X424Y1109D01*
X422Y1109D01*
X422Y1107D01*
X420Y1107D01*
X420Y1087D01*
X424Y1087D01*
X424Y1085D01*
X426Y1085D01*
X426Y1083D01*
X428Y1083D01*
X428Y1081D01*
X430Y1081D01*
X430Y1079D01*
X432Y1079D01*
X432Y1077D01*
X434Y1077D01*
X434Y1073D01*
X436Y1073D01*
X436Y1069D01*
X438Y1069D01*
X438Y1065D01*
X440Y1065D01*
X440Y1059D01*
X442Y1059D01*
X442Y1037D01*
X440Y1037D01*
X440Y1029D01*
X438Y1029D01*
X438Y1025D01*
X436Y1025D01*
X436Y1021D01*
X434Y1021D01*
X434Y1019D01*
X432Y1019D01*
X432Y1017D01*
X430Y1017D01*
X430Y1013D01*
X428Y1013D01*
X428Y1011D01*
X424Y1011D01*
X424Y1009D01*
X422Y1009D01*
X422Y1007D01*
X420Y1007D01*
X420Y987D01*
X424Y987D01*
X424Y985D01*
X426Y985D01*
X426Y983D01*
X428Y983D01*
X428Y981D01*
X430Y981D01*
X430Y979D01*
X432Y979D01*
X432Y977D01*
X434Y977D01*
X434Y973D01*
X436Y973D01*
X436Y969D01*
X438Y969D01*
X438Y965D01*
X440Y965D01*
X440Y959D01*
X442Y959D01*
X442Y937D01*
X440Y937D01*
X440Y929D01*
X438Y929D01*
X438Y925D01*
X436Y925D01*
X436Y921D01*
X434Y921D01*
X434Y919D01*
X432Y919D01*
X432Y917D01*
X430Y917D01*
X430Y913D01*
X428Y913D01*
X428Y911D01*
X424Y911D01*
X424Y909D01*
X422Y909D01*
X422Y907D01*
X420Y907D01*
X420Y887D01*
X424Y887D01*
X424Y885D01*
X426Y885D01*
X426Y883D01*
X428Y883D01*
X428Y881D01*
X430Y881D01*
X430Y879D01*
X432Y879D01*
X432Y877D01*
X434Y877D01*
X434Y873D01*
X436Y873D01*
X436Y869D01*
X438Y869D01*
X438Y865D01*
X440Y865D01*
X440Y859D01*
X442Y859D01*
X442Y837D01*
X440Y837D01*
X440Y829D01*
X438Y829D01*
X438Y825D01*
X436Y825D01*
X436Y821D01*
X434Y821D01*
X434Y819D01*
X432Y819D01*
X432Y817D01*
X430Y817D01*
X430Y813D01*
X428Y813D01*
X428Y811D01*
X424Y811D01*
X424Y809D01*
X422Y809D01*
X422Y807D01*
X420Y807D01*
X420Y787D01*
X424Y787D01*
X424Y785D01*
X426Y785D01*
X426Y783D01*
X428Y783D01*
X428Y781D01*
X430Y781D01*
X430Y779D01*
X432Y779D01*
X432Y777D01*
X434Y777D01*
X434Y773D01*
X436Y773D01*
X436Y769D01*
X438Y769D01*
X438Y765D01*
X440Y765D01*
X440Y759D01*
X442Y759D01*
X442Y737D01*
X440Y737D01*
X440Y729D01*
X438Y729D01*
X438Y725D01*
X436Y725D01*
X436Y721D01*
X434Y721D01*
X434Y719D01*
X432Y719D01*
X432Y717D01*
X430Y717D01*
X430Y713D01*
X428Y713D01*
X428Y711D01*
X424Y711D01*
X424Y709D01*
X422Y709D01*
X422Y707D01*
X420Y707D01*
X420Y687D01*
X424Y687D01*
X424Y685D01*
X426Y685D01*
X426Y683D01*
X428Y683D01*
X428Y681D01*
X430Y681D01*
X430Y679D01*
X432Y679D01*
X432Y677D01*
X434Y677D01*
X434Y673D01*
X436Y673D01*
X436Y669D01*
X438Y669D01*
X438Y665D01*
X440Y665D01*
X440Y659D01*
X442Y659D01*
X442Y637D01*
X440Y637D01*
X440Y629D01*
X438Y629D01*
X438Y625D01*
X436Y625D01*
X436Y621D01*
X434Y621D01*
X434Y619D01*
X432Y619D01*
X432Y617D01*
X430Y617D01*
X430Y613D01*
X428Y613D01*
X428Y611D01*
X424Y611D01*
X424Y609D01*
X422Y609D01*
X422Y607D01*
X420Y607D01*
X420Y587D01*
X424Y587D01*
X424Y585D01*
X426Y585D01*
X426Y583D01*
X428Y583D01*
X428Y581D01*
X430Y581D01*
X430Y579D01*
X432Y579D01*
X432Y577D01*
X434Y577D01*
X434Y573D01*
X436Y573D01*
X436Y569D01*
X438Y569D01*
X438Y565D01*
X440Y565D01*
X440Y559D01*
X442Y559D01*
X442Y529D01*
X444Y529D01*
X444Y527D01*
X446Y527D01*
X446Y525D01*
X448Y525D01*
X448Y523D01*
X450Y523D01*
X450Y521D01*
X452Y521D01*
X452Y519D01*
X454Y519D01*
X454Y517D01*
X456Y517D01*
X456Y515D01*
X458Y515D01*
X458Y513D01*
X460Y513D01*
X460Y511D01*
X462Y511D01*
X462Y509D01*
X464Y509D01*
X464Y507D01*
X466Y507D01*
X466Y505D01*
X468Y505D01*
X468Y503D01*
X470Y503D01*
X470Y501D01*
X472Y501D01*
X472Y499D01*
X1382Y499D01*
X1382Y501D01*
X1376Y501D01*
X1376Y503D01*
X1372Y503D01*
X1372Y505D01*
X1368Y505D01*
X1368Y507D01*
X1364Y507D01*
X1364Y509D01*
X1362Y509D01*
X1362Y511D01*
X1360Y511D01*
X1360Y513D01*
X1358Y513D01*
X1358Y515D01*
X1356Y515D01*
X1356Y517D01*
X1354Y517D01*
X1354Y521D01*
X1352Y521D01*
X1352Y523D01*
X1350Y523D01*
X1350Y527D01*
X1348Y527D01*
X1348Y533D01*
X1346Y533D01*
X1346Y541D01*
X1344Y541D01*
X1344Y553D01*
X1346Y553D01*
X1346Y563D01*
X1348Y563D01*
X1348Y567D01*
X1350Y567D01*
X1350Y571D01*
X1352Y571D01*
X1352Y575D01*
X1354Y575D01*
X1354Y577D01*
X1356Y577D01*
X1356Y579D01*
X1358Y579D01*
X1358Y583D01*
X1362Y583D01*
X1362Y585D01*
X1364Y585D01*
X1364Y587D01*
X1366Y587D01*
X1366Y607D01*
X1364Y607D01*
X1364Y609D01*
X1362Y609D01*
X1362Y611D01*
X1360Y611D01*
X1360Y613D01*
X1358Y613D01*
X1358Y615D01*
X1356Y615D01*
X1356Y617D01*
X1354Y617D01*
X1354Y621D01*
X1352Y621D01*
X1352Y623D01*
X1350Y623D01*
X1350Y627D01*
X1348Y627D01*
X1348Y633D01*
X1346Y633D01*
X1346Y641D01*
X1344Y641D01*
X1344Y653D01*
X1346Y653D01*
X1346Y663D01*
X1348Y663D01*
X1348Y667D01*
X1350Y667D01*
X1350Y671D01*
X1352Y671D01*
X1352Y675D01*
X1354Y675D01*
X1354Y677D01*
X1356Y677D01*
X1356Y679D01*
X1358Y679D01*
X1358Y683D01*
X1362Y683D01*
X1362Y685D01*
X1364Y685D01*
X1364Y687D01*
X1366Y687D01*
X1366Y707D01*
X1364Y707D01*
X1364Y709D01*
X1362Y709D01*
X1362Y711D01*
X1360Y711D01*
X1360Y713D01*
X1358Y713D01*
X1358Y715D01*
X1356Y715D01*
X1356Y717D01*
X1354Y717D01*
X1354Y721D01*
X1352Y721D01*
X1352Y723D01*
X1350Y723D01*
X1350Y727D01*
X1348Y727D01*
X1348Y733D01*
X1346Y733D01*
X1346Y741D01*
X1344Y741D01*
X1344Y753D01*
X1346Y753D01*
X1346Y763D01*
X1348Y763D01*
X1348Y767D01*
X1350Y767D01*
X1350Y771D01*
X1352Y771D01*
X1352Y775D01*
X1354Y775D01*
X1354Y777D01*
X1356Y777D01*
X1356Y779D01*
X1358Y779D01*
X1358Y783D01*
X1362Y783D01*
X1362Y785D01*
X1364Y785D01*
X1364Y787D01*
X1366Y787D01*
X1366Y807D01*
X1364Y807D01*
X1364Y809D01*
X1362Y809D01*
X1362Y811D01*
X1360Y811D01*
X1360Y813D01*
X1358Y813D01*
X1358Y815D01*
X1356Y815D01*
X1356Y817D01*
X1354Y817D01*
X1354Y821D01*
X1352Y821D01*
X1352Y823D01*
X1350Y823D01*
X1350Y827D01*
X1348Y827D01*
X1348Y833D01*
X1346Y833D01*
X1346Y841D01*
X1344Y841D01*
X1344Y853D01*
X1346Y853D01*
X1346Y863D01*
X1348Y863D01*
X1348Y867D01*
X1350Y867D01*
X1350Y871D01*
X1352Y871D01*
X1352Y875D01*
X1354Y875D01*
X1354Y877D01*
X1356Y877D01*
X1356Y879D01*
X1358Y879D01*
X1358Y883D01*
X1362Y883D01*
X1362Y885D01*
X1364Y885D01*
X1364Y887D01*
X1366Y887D01*
X1366Y907D01*
X1364Y907D01*
X1364Y909D01*
X1362Y909D01*
X1362Y911D01*
X1360Y911D01*
X1360Y913D01*
X1358Y913D01*
X1358Y915D01*
X1356Y915D01*
X1356Y917D01*
X1354Y917D01*
X1354Y921D01*
X1352Y921D01*
X1352Y923D01*
X1350Y923D01*
X1350Y927D01*
X1348Y927D01*
X1348Y933D01*
X1346Y933D01*
X1346Y941D01*
X1344Y941D01*
X1344Y953D01*
X1346Y953D01*
X1346Y963D01*
X1348Y963D01*
X1348Y967D01*
X1350Y967D01*
X1350Y971D01*
X1352Y971D01*
X1352Y975D01*
X1354Y975D01*
X1354Y977D01*
X1356Y977D01*
X1356Y979D01*
X1358Y979D01*
X1358Y983D01*
X1362Y983D01*
X1362Y985D01*
X1364Y985D01*
X1364Y987D01*
X1366Y987D01*
X1366Y1007D01*
X1364Y1007D01*
X1364Y1009D01*
X1362Y1009D01*
X1362Y1011D01*
X1360Y1011D01*
X1360Y1013D01*
X1358Y1013D01*
X1358Y1015D01*
X1356Y1015D01*
X1356Y1017D01*
X1354Y1017D01*
X1354Y1021D01*
X1352Y1021D01*
X1352Y1023D01*
X1350Y1023D01*
X1350Y1027D01*
X1348Y1027D01*
X1348Y1033D01*
X1346Y1033D01*
X1346Y1041D01*
X1344Y1041D01*
X1344Y1053D01*
X1346Y1053D01*
X1346Y1063D01*
X1348Y1063D01*
X1348Y1067D01*
X1350Y1067D01*
X1350Y1071D01*
X1352Y1071D01*
X1352Y1075D01*
X1354Y1075D01*
X1354Y1077D01*
X1356Y1077D01*
X1356Y1079D01*
X1358Y1079D01*
X1358Y1083D01*
X1362Y1083D01*
X1362Y1085D01*
X1364Y1085D01*
X1364Y1087D01*
X1366Y1087D01*
X1366Y1107D01*
X1364Y1107D01*
X1364Y1109D01*
X1362Y1109D01*
X1362Y1111D01*
X1360Y1111D01*
X1360Y1113D01*
X1358Y1113D01*
X1358Y1115D01*
X1356Y1115D01*
X1356Y1117D01*
X1354Y1117D01*
X1354Y1121D01*
X1352Y1121D01*
X1352Y1123D01*
X1350Y1123D01*
X1350Y1127D01*
X1348Y1127D01*
X1348Y1133D01*
X1346Y1133D01*
X1346Y1141D01*
X1344Y1141D01*
X1344Y1153D01*
X1346Y1153D01*
X1346Y1163D01*
X1348Y1163D01*
X1348Y1167D01*
X1350Y1167D01*
X1350Y1171D01*
X1352Y1171D01*
X1352Y1175D01*
X1354Y1175D01*
X1354Y1177D01*
X1356Y1177D01*
X1356Y1179D01*
X1358Y1179D01*
X1358Y1183D01*
X1362Y1183D01*
X1362Y1185D01*
X1364Y1185D01*
X1364Y1187D01*
X1366Y1187D01*
X1366Y1207D01*
X1364Y1207D01*
X1364Y1209D01*
X1362Y1209D01*
X1362Y1211D01*
X1360Y1211D01*
X1360Y1213D01*
X1358Y1213D01*
X1358Y1215D01*
X1356Y1215D01*
X1356Y1217D01*
X1354Y1217D01*
X1354Y1221D01*
X1352Y1221D01*
X1352Y1223D01*
X1350Y1223D01*
X1350Y1227D01*
X1348Y1227D01*
X1348Y1233D01*
X1346Y1233D01*
X1346Y1241D01*
X1344Y1241D01*
X1344Y1253D01*
X1346Y1253D01*
X1346Y1263D01*
X1348Y1263D01*
X1348Y1267D01*
X1350Y1267D01*
X1350Y1271D01*
X1352Y1271D01*
X1352Y1275D01*
X1354Y1275D01*
X1354Y1277D01*
X1356Y1277D01*
X1356Y1279D01*
X1358Y1279D01*
X1358Y1283D01*
X1362Y1283D01*
X1362Y1285D01*
X1364Y1285D01*
X1364Y1287D01*
X1366Y1287D01*
X1366Y1307D01*
X1364Y1307D01*
X1364Y1309D01*
X1362Y1309D01*
X1362Y1311D01*
X1360Y1311D01*
X1360Y1313D01*
X1358Y1313D01*
X1358Y1315D01*
X1356Y1315D01*
X1356Y1317D01*
X1354Y1317D01*
X1354Y1321D01*
X1352Y1321D01*
X1352Y1323D01*
X1350Y1323D01*
X1350Y1327D01*
X1348Y1327D01*
X1348Y1333D01*
X1346Y1333D01*
X1346Y1341D01*
X1344Y1341D01*
X1344Y1353D01*
X1346Y1353D01*
X1346Y1363D01*
X1348Y1363D01*
X1348Y1367D01*
X1350Y1367D01*
X1350Y1371D01*
X1352Y1371D01*
X1352Y1375D01*
X1354Y1375D01*
X1354Y1377D01*
X1356Y1377D01*
X1356Y1379D01*
X1358Y1379D01*
X1358Y1383D01*
X1362Y1383D01*
X1362Y1385D01*
X1364Y1385D01*
X1364Y1387D01*
X1366Y1387D01*
X1366Y1407D01*
X1364Y1407D01*
X1364Y1409D01*
X1362Y1409D01*
X1362Y1411D01*
X1360Y1411D01*
X1360Y1413D01*
X1358Y1413D01*
X1358Y1415D01*
X1356Y1415D01*
X1356Y1417D01*
X1354Y1417D01*
X1354Y1421D01*
X1352Y1421D01*
X1352Y1423D01*
X1350Y1423D01*
X1350Y1427D01*
X1348Y1427D01*
X1348Y1433D01*
X1346Y1433D01*
X1346Y1441D01*
X1344Y1441D01*
X1344Y1453D01*
X1346Y1453D01*
X1346Y1463D01*
X1348Y1463D01*
X1348Y1467D01*
X1350Y1467D01*
X1350Y1471D01*
X1352Y1471D01*
X1352Y1475D01*
X1354Y1475D01*
X1354Y1477D01*
X1356Y1477D01*
X1356Y1479D01*
X1358Y1479D01*
X1358Y1483D01*
X1362Y1483D01*
X1362Y1485D01*
X1364Y1485D01*
X1364Y1487D01*
X1366Y1487D01*
X1366Y1507D01*
X1364Y1507D01*
X1364Y1509D01*
X1362Y1509D01*
X1362Y1511D01*
X1360Y1511D01*
X1360Y1513D01*
X1358Y1513D01*
X1358Y1515D01*
X1356Y1515D01*
X1356Y1517D01*
X1354Y1517D01*
X1354Y1521D01*
X1352Y1521D01*
X1352Y1523D01*
X1350Y1523D01*
X1350Y1527D01*
X1348Y1527D01*
X1348Y1533D01*
X1346Y1533D01*
X1346Y1541D01*
X1344Y1541D01*
X1344Y1553D01*
X1346Y1553D01*
X1346Y1563D01*
X1348Y1563D01*
X1348Y1567D01*
X1350Y1567D01*
X1350Y1571D01*
X1352Y1571D01*
X1352Y1575D01*
X1354Y1575D01*
X1354Y1577D01*
X1356Y1577D01*
X1356Y1579D01*
X1358Y1579D01*
X1358Y1583D01*
X1362Y1583D01*
X1362Y1585D01*
X1364Y1585D01*
X1364Y1587D01*
X1366Y1587D01*
X1366Y1607D01*
X1364Y1607D01*
X1364Y1609D01*
X1362Y1609D01*
X1362Y1611D01*
X1360Y1611D01*
X1360Y1613D01*
X1358Y1613D01*
X1358Y1615D01*
X1356Y1615D01*
X1356Y1617D01*
X1354Y1617D01*
X1354Y1621D01*
X1352Y1621D01*
X1352Y1623D01*
X1350Y1623D01*
X1350Y1627D01*
X1348Y1627D01*
X1348Y1633D01*
X1346Y1633D01*
X1346Y1641D01*
X1344Y1641D01*
X1344Y1653D01*
X1346Y1653D01*
X1346Y1663D01*
X1348Y1663D01*
X1348Y1667D01*
X1350Y1667D01*
X1350Y1671D01*
X1352Y1671D01*
X1352Y1675D01*
X1354Y1675D01*
X1354Y1677D01*
X1356Y1677D01*
X1356Y1679D01*
X1358Y1679D01*
X1358Y1683D01*
X1362Y1683D01*
X1362Y1685D01*
X1364Y1685D01*
X1364Y1687D01*
X1366Y1687D01*
X1366Y1707D01*
X1364Y1707D01*
X1364Y1709D01*
X1362Y1709D01*
X1362Y1711D01*
X1360Y1711D01*
X1360Y1713D01*
X1358Y1713D01*
X1358Y1715D01*
X1356Y1715D01*
X1356Y1717D01*
X1354Y1717D01*
X1354Y1721D01*
X1352Y1721D01*
X1352Y1723D01*
X1350Y1723D01*
X1350Y1727D01*
X1348Y1727D01*
X1348Y1733D01*
X1346Y1733D01*
X1346Y1741D01*
X1344Y1741D01*
X1344Y1753D01*
X1346Y1753D01*
X1346Y1763D01*
X1348Y1763D01*
X1348Y1767D01*
X1350Y1767D01*
X1350Y1771D01*
X1352Y1771D01*
X1352Y1775D01*
X1354Y1775D01*
X1354Y1777D01*
X1356Y1777D01*
X1356Y1779D01*
X1358Y1779D01*
X1358Y1783D01*
X1362Y1783D01*
X1362Y1785D01*
X1364Y1785D01*
X1364Y1787D01*
X1366Y1787D01*
X1366Y1807D01*
X1364Y1807D01*
X1364Y1809D01*
X1362Y1809D01*
X1362Y1811D01*
X1360Y1811D01*
X1360Y1813D01*
X1358Y1813D01*
X1358Y1815D01*
X1356Y1815D01*
X1356Y1817D01*
X1354Y1817D01*
X1354Y1821D01*
X1352Y1821D01*
X1352Y1823D01*
X1350Y1823D01*
X1350Y1827D01*
X1348Y1827D01*
X1348Y1833D01*
X1346Y1833D01*
X1346Y1841D01*
X1344Y1841D01*
X1344Y1853D01*
X1346Y1853D01*
X1346Y1863D01*
X1348Y1863D01*
X1348Y1867D01*
X1350Y1867D01*
X1350Y1871D01*
X1352Y1871D01*
X1352Y1875D01*
X1354Y1875D01*
X1354Y1877D01*
X1356Y1877D01*
X1356Y1879D01*
X1358Y1879D01*
X1358Y1883D01*
X1362Y1883D01*
X1362Y1885D01*
X1364Y1885D01*
X1364Y1887D01*
X1366Y1887D01*
X1366Y1907D01*
X1364Y1907D01*
X1364Y1909D01*
X1362Y1909D01*
X1362Y1911D01*
X1360Y1911D01*
X1360Y1913D01*
X1358Y1913D01*
X1358Y1915D01*
X1356Y1915D01*
X1356Y1917D01*
X1354Y1917D01*
X1354Y1921D01*
X1352Y1921D01*
X1352Y1923D01*
X1350Y1923D01*
X1350Y1927D01*
X1348Y1927D01*
X1348Y1933D01*
X1346Y1933D01*
X1346Y1941D01*
X1344Y1941D01*
X1344Y1953D01*
X1346Y1953D01*
X1346Y1963D01*
X1348Y1963D01*
X1348Y1967D01*
X1350Y1967D01*
X1350Y1971D01*
X1352Y1971D01*
X1352Y1975D01*
X1354Y1975D01*
X1354Y1977D01*
X1356Y1977D01*
X1356Y1979D01*
X1358Y1979D01*
X1358Y1983D01*
X1362Y1983D01*
X1362Y1985D01*
X1364Y1985D01*
X1364Y1987D01*
X1366Y1987D01*
X1366Y1989D01*
X1370Y1989D01*
X1370Y1991D01*
X1374Y1991D01*
X1374Y1993D01*
X1378Y1993D01*
X1378Y1995D01*
X1388Y1995D01*
X1388Y1997D01*
X400Y1997D01*
G37*
D02*
G36*
X1420Y1897D02*
X1420Y1887D01*
X1424Y1887D01*
X1424Y1885D01*
X1426Y1885D01*
X1426Y1883D01*
X1428Y1883D01*
X1428Y1881D01*
X1430Y1881D01*
X1430Y1879D01*
X1432Y1879D01*
X1432Y1877D01*
X1434Y1877D01*
X1434Y1873D01*
X1436Y1873D01*
X1436Y1869D01*
X1438Y1869D01*
X1438Y1865D01*
X1440Y1865D01*
X1440Y1859D01*
X1442Y1859D01*
X1442Y1837D01*
X1440Y1837D01*
X1440Y1829D01*
X1438Y1829D01*
X1438Y1825D01*
X1436Y1825D01*
X1436Y1821D01*
X1434Y1821D01*
X1434Y1819D01*
X1432Y1819D01*
X1432Y1817D01*
X1430Y1817D01*
X1430Y1813D01*
X1428Y1813D01*
X1428Y1811D01*
X1424Y1811D01*
X1424Y1809D01*
X1422Y1809D01*
X1422Y1807D01*
X1420Y1807D01*
X1420Y1787D01*
X1424Y1787D01*
X1424Y1785D01*
X1426Y1785D01*
X1426Y1783D01*
X1428Y1783D01*
X1428Y1781D01*
X1430Y1781D01*
X1430Y1779D01*
X1432Y1779D01*
X1432Y1777D01*
X1434Y1777D01*
X1434Y1773D01*
X1436Y1773D01*
X1436Y1769D01*
X1438Y1769D01*
X1438Y1765D01*
X1440Y1765D01*
X1440Y1759D01*
X1442Y1759D01*
X1442Y1737D01*
X1440Y1737D01*
X1440Y1729D01*
X1438Y1729D01*
X1438Y1725D01*
X1436Y1725D01*
X1436Y1721D01*
X1434Y1721D01*
X1434Y1719D01*
X1432Y1719D01*
X1432Y1717D01*
X1430Y1717D01*
X1430Y1713D01*
X1428Y1713D01*
X1428Y1711D01*
X1424Y1711D01*
X1424Y1709D01*
X1422Y1709D01*
X1422Y1707D01*
X1420Y1707D01*
X1420Y1687D01*
X1424Y1687D01*
X1424Y1685D01*
X1426Y1685D01*
X1426Y1683D01*
X1428Y1683D01*
X1428Y1681D01*
X1430Y1681D01*
X1430Y1679D01*
X1432Y1679D01*
X1432Y1677D01*
X1434Y1677D01*
X1434Y1673D01*
X1436Y1673D01*
X1436Y1669D01*
X1438Y1669D01*
X1438Y1665D01*
X1440Y1665D01*
X1440Y1659D01*
X1442Y1659D01*
X1442Y1637D01*
X1440Y1637D01*
X1440Y1629D01*
X1438Y1629D01*
X1438Y1625D01*
X1436Y1625D01*
X1436Y1621D01*
X1434Y1621D01*
X1434Y1619D01*
X1432Y1619D01*
X1432Y1617D01*
X1430Y1617D01*
X1430Y1613D01*
X1428Y1613D01*
X1428Y1611D01*
X1424Y1611D01*
X1424Y1609D01*
X1422Y1609D01*
X1422Y1607D01*
X1420Y1607D01*
X1420Y1587D01*
X1424Y1587D01*
X1424Y1585D01*
X1426Y1585D01*
X1426Y1583D01*
X1428Y1583D01*
X1428Y1581D01*
X1430Y1581D01*
X1430Y1579D01*
X1432Y1579D01*
X1432Y1577D01*
X1434Y1577D01*
X1434Y1573D01*
X1436Y1573D01*
X1436Y1569D01*
X1438Y1569D01*
X1438Y1565D01*
X1440Y1565D01*
X1440Y1559D01*
X1442Y1559D01*
X1442Y1537D01*
X1440Y1537D01*
X1440Y1529D01*
X1438Y1529D01*
X1438Y1525D01*
X1436Y1525D01*
X1436Y1521D01*
X1434Y1521D01*
X1434Y1519D01*
X1432Y1519D01*
X1432Y1517D01*
X1430Y1517D01*
X1430Y1513D01*
X1428Y1513D01*
X1428Y1511D01*
X1424Y1511D01*
X1424Y1509D01*
X1422Y1509D01*
X1422Y1507D01*
X1420Y1507D01*
X1420Y1487D01*
X1424Y1487D01*
X1424Y1485D01*
X1426Y1485D01*
X1426Y1483D01*
X1428Y1483D01*
X1428Y1481D01*
X1430Y1481D01*
X1430Y1479D01*
X1432Y1479D01*
X1432Y1477D01*
X1434Y1477D01*
X1434Y1473D01*
X1436Y1473D01*
X1436Y1469D01*
X1438Y1469D01*
X1438Y1465D01*
X1440Y1465D01*
X1440Y1459D01*
X1442Y1459D01*
X1442Y1437D01*
X1440Y1437D01*
X1440Y1429D01*
X1438Y1429D01*
X1438Y1425D01*
X1436Y1425D01*
X1436Y1421D01*
X1434Y1421D01*
X1434Y1419D01*
X1432Y1419D01*
X1432Y1417D01*
X1430Y1417D01*
X1430Y1413D01*
X1428Y1413D01*
X1428Y1411D01*
X1424Y1411D01*
X1424Y1409D01*
X1422Y1409D01*
X1422Y1407D01*
X1420Y1407D01*
X1420Y1387D01*
X1424Y1387D01*
X1424Y1385D01*
X1426Y1385D01*
X1426Y1383D01*
X1428Y1383D01*
X1428Y1381D01*
X1430Y1381D01*
X1430Y1379D01*
X1432Y1379D01*
X1432Y1377D01*
X1434Y1377D01*
X1434Y1373D01*
X1436Y1373D01*
X1436Y1369D01*
X1438Y1369D01*
X1438Y1365D01*
X1440Y1365D01*
X1440Y1359D01*
X1442Y1359D01*
X1442Y1337D01*
X1440Y1337D01*
X1440Y1329D01*
X1438Y1329D01*
X1438Y1325D01*
X1436Y1325D01*
X1436Y1321D01*
X1434Y1321D01*
X1434Y1319D01*
X1432Y1319D01*
X1432Y1317D01*
X1430Y1317D01*
X1430Y1313D01*
X1428Y1313D01*
X1428Y1311D01*
X1424Y1311D01*
X1424Y1309D01*
X1422Y1309D01*
X1422Y1307D01*
X1420Y1307D01*
X1420Y1287D01*
X1424Y1287D01*
X1424Y1285D01*
X1426Y1285D01*
X1426Y1283D01*
X1428Y1283D01*
X1428Y1281D01*
X1430Y1281D01*
X1430Y1279D01*
X1432Y1279D01*
X1432Y1277D01*
X1434Y1277D01*
X1434Y1273D01*
X1436Y1273D01*
X1436Y1269D01*
X1438Y1269D01*
X1438Y1265D01*
X1440Y1265D01*
X1440Y1259D01*
X1442Y1259D01*
X1442Y1237D01*
X1440Y1237D01*
X1440Y1229D01*
X1438Y1229D01*
X1438Y1225D01*
X1436Y1225D01*
X1436Y1221D01*
X1434Y1221D01*
X1434Y1219D01*
X1432Y1219D01*
X1432Y1217D01*
X1430Y1217D01*
X1430Y1213D01*
X1428Y1213D01*
X1428Y1211D01*
X1424Y1211D01*
X1424Y1209D01*
X1422Y1209D01*
X1422Y1207D01*
X1420Y1207D01*
X1420Y1187D01*
X1424Y1187D01*
X1424Y1185D01*
X1426Y1185D01*
X1426Y1183D01*
X1428Y1183D01*
X1428Y1181D01*
X1430Y1181D01*
X1430Y1179D01*
X1432Y1179D01*
X1432Y1177D01*
X1434Y1177D01*
X1434Y1173D01*
X1436Y1173D01*
X1436Y1169D01*
X1438Y1169D01*
X1438Y1165D01*
X1440Y1165D01*
X1440Y1159D01*
X1442Y1159D01*
X1442Y1137D01*
X1440Y1137D01*
X1440Y1129D01*
X1438Y1129D01*
X1438Y1125D01*
X1436Y1125D01*
X1436Y1121D01*
X1434Y1121D01*
X1434Y1119D01*
X1432Y1119D01*
X1432Y1117D01*
X1430Y1117D01*
X1430Y1113D01*
X1428Y1113D01*
X1428Y1111D01*
X1424Y1111D01*
X1424Y1109D01*
X1422Y1109D01*
X1422Y1107D01*
X1420Y1107D01*
X1420Y1087D01*
X1424Y1087D01*
X1424Y1085D01*
X1426Y1085D01*
X1426Y1083D01*
X1428Y1083D01*
X1428Y1081D01*
X1430Y1081D01*
X1430Y1079D01*
X1432Y1079D01*
X1432Y1077D01*
X1434Y1077D01*
X1434Y1073D01*
X1436Y1073D01*
X1436Y1069D01*
X1438Y1069D01*
X1438Y1065D01*
X1440Y1065D01*
X1440Y1059D01*
X1442Y1059D01*
X1442Y1037D01*
X1440Y1037D01*
X1440Y1029D01*
X1438Y1029D01*
X1438Y1025D01*
X1436Y1025D01*
X1436Y1021D01*
X1434Y1021D01*
X1434Y1019D01*
X1432Y1019D01*
X1432Y1017D01*
X1430Y1017D01*
X1430Y1013D01*
X1428Y1013D01*
X1428Y1011D01*
X1424Y1011D01*
X1424Y1009D01*
X1422Y1009D01*
X1422Y1007D01*
X1420Y1007D01*
X1420Y987D01*
X1424Y987D01*
X1424Y985D01*
X1426Y985D01*
X1426Y983D01*
X1428Y983D01*
X1428Y981D01*
X1430Y981D01*
X1430Y979D01*
X1432Y979D01*
X1432Y977D01*
X1434Y977D01*
X1434Y973D01*
X1436Y973D01*
X1436Y969D01*
X1438Y969D01*
X1438Y965D01*
X1440Y965D01*
X1440Y959D01*
X1442Y959D01*
X1442Y937D01*
X1440Y937D01*
X1440Y929D01*
X1438Y929D01*
X1438Y925D01*
X1436Y925D01*
X1436Y921D01*
X1434Y921D01*
X1434Y919D01*
X1432Y919D01*
X1432Y917D01*
X1430Y917D01*
X1430Y913D01*
X1428Y913D01*
X1428Y911D01*
X1424Y911D01*
X1424Y909D01*
X1422Y909D01*
X1422Y907D01*
X1420Y907D01*
X1420Y887D01*
X1424Y887D01*
X1424Y885D01*
X1426Y885D01*
X1426Y883D01*
X1428Y883D01*
X1428Y881D01*
X1430Y881D01*
X1430Y879D01*
X1432Y879D01*
X1432Y877D01*
X1434Y877D01*
X1434Y873D01*
X1436Y873D01*
X1436Y869D01*
X1438Y869D01*
X1438Y865D01*
X1440Y865D01*
X1440Y859D01*
X1442Y859D01*
X1442Y837D01*
X1440Y837D01*
X1440Y829D01*
X1438Y829D01*
X1438Y825D01*
X1436Y825D01*
X1436Y821D01*
X1434Y821D01*
X1434Y819D01*
X1432Y819D01*
X1432Y817D01*
X1430Y817D01*
X1430Y813D01*
X1428Y813D01*
X1428Y811D01*
X1424Y811D01*
X1424Y809D01*
X1422Y809D01*
X1422Y807D01*
X1420Y807D01*
X1420Y787D01*
X1424Y787D01*
X1424Y785D01*
X1426Y785D01*
X1426Y783D01*
X1428Y783D01*
X1428Y781D01*
X1430Y781D01*
X1430Y779D01*
X1432Y779D01*
X1432Y777D01*
X1434Y777D01*
X1434Y773D01*
X1436Y773D01*
X1436Y769D01*
X1438Y769D01*
X1438Y765D01*
X1440Y765D01*
X1440Y759D01*
X1442Y759D01*
X1442Y737D01*
X1440Y737D01*
X1440Y729D01*
X1438Y729D01*
X1438Y725D01*
X1436Y725D01*
X1436Y721D01*
X1434Y721D01*
X1434Y719D01*
X1432Y719D01*
X1432Y717D01*
X1430Y717D01*
X1430Y713D01*
X1428Y713D01*
X1428Y711D01*
X1424Y711D01*
X1424Y709D01*
X1422Y709D01*
X1422Y707D01*
X1420Y707D01*
X1420Y687D01*
X1424Y687D01*
X1424Y685D01*
X1426Y685D01*
X1426Y683D01*
X1428Y683D01*
X1428Y681D01*
X1430Y681D01*
X1430Y679D01*
X1432Y679D01*
X1432Y677D01*
X1434Y677D01*
X1434Y673D01*
X1436Y673D01*
X1436Y669D01*
X1438Y669D01*
X1438Y665D01*
X1440Y665D01*
X1440Y659D01*
X1442Y659D01*
X1442Y637D01*
X1440Y637D01*
X1440Y629D01*
X1438Y629D01*
X1438Y625D01*
X1436Y625D01*
X1436Y621D01*
X1434Y621D01*
X1434Y619D01*
X1432Y619D01*
X1432Y617D01*
X1430Y617D01*
X1430Y613D01*
X1428Y613D01*
X1428Y611D01*
X1424Y611D01*
X1424Y609D01*
X1422Y609D01*
X1422Y607D01*
X1420Y607D01*
X1420Y587D01*
X1424Y587D01*
X1424Y585D01*
X1426Y585D01*
X1426Y583D01*
X1428Y583D01*
X1428Y581D01*
X1430Y581D01*
X1430Y579D01*
X1432Y579D01*
X1432Y577D01*
X1434Y577D01*
X1434Y573D01*
X1436Y573D01*
X1436Y569D01*
X1438Y569D01*
X1438Y565D01*
X1440Y565D01*
X1440Y559D01*
X1442Y559D01*
X1442Y547D01*
X1444Y547D01*
X1444Y545D01*
X1448Y545D01*
X1448Y543D01*
X1452Y543D01*
X1452Y541D01*
X1456Y541D01*
X1456Y539D01*
X1460Y539D01*
X1460Y537D01*
X1464Y537D01*
X1464Y535D01*
X1468Y535D01*
X1468Y533D01*
X1472Y533D01*
X1472Y531D01*
X1476Y531D01*
X1476Y529D01*
X1478Y529D01*
X1478Y527D01*
X1482Y527D01*
X1482Y525D01*
X1486Y525D01*
X1486Y523D01*
X1490Y523D01*
X1490Y521D01*
X1494Y521D01*
X1494Y519D01*
X1498Y519D01*
X1498Y517D01*
X1754Y517D01*
X1754Y515D01*
X1758Y515D01*
X1758Y513D01*
X1760Y513D01*
X1760Y511D01*
X1762Y511D01*
X1762Y509D01*
X1764Y509D01*
X1764Y507D01*
X1766Y507D01*
X1766Y503D01*
X1768Y503D01*
X1768Y501D01*
X1770Y501D01*
X1770Y499D01*
X1772Y499D01*
X1772Y497D01*
X1774Y497D01*
X1774Y493D01*
X1776Y493D01*
X1776Y491D01*
X1778Y491D01*
X1778Y489D01*
X1780Y489D01*
X1780Y487D01*
X1782Y487D01*
X1782Y485D01*
X1784Y485D01*
X1784Y481D01*
X1786Y481D01*
X1786Y479D01*
X1788Y479D01*
X1788Y477D01*
X1790Y477D01*
X1790Y475D01*
X1792Y475D01*
X1792Y471D01*
X1794Y471D01*
X1794Y469D01*
X1796Y469D01*
X1796Y467D01*
X1798Y467D01*
X1798Y465D01*
X1800Y465D01*
X1800Y461D01*
X1802Y461D01*
X1802Y459D01*
X1804Y459D01*
X1804Y457D01*
X1806Y457D01*
X1806Y455D01*
X1808Y455D01*
X1808Y451D01*
X1810Y451D01*
X1810Y449D01*
X1812Y449D01*
X1812Y447D01*
X1814Y447D01*
X1814Y445D01*
X1816Y445D01*
X1816Y441D01*
X1818Y441D01*
X1818Y439D01*
X1820Y439D01*
X1820Y437D01*
X1822Y437D01*
X1822Y435D01*
X1824Y435D01*
X1824Y431D01*
X1826Y431D01*
X1826Y429D01*
X1828Y429D01*
X1828Y427D01*
X1830Y427D01*
X1830Y425D01*
X1832Y425D01*
X1832Y421D01*
X1834Y421D01*
X1834Y419D01*
X1836Y419D01*
X1836Y417D01*
X1838Y417D01*
X1838Y415D01*
X1840Y415D01*
X1840Y413D01*
X1842Y413D01*
X1842Y409D01*
X1844Y409D01*
X1844Y407D01*
X1846Y407D01*
X1846Y405D01*
X1848Y405D01*
X1848Y403D01*
X1850Y403D01*
X1850Y399D01*
X2282Y399D01*
X2282Y401D01*
X2276Y401D01*
X2276Y403D01*
X2272Y403D01*
X2272Y405D01*
X2268Y405D01*
X2268Y407D01*
X2264Y407D01*
X2264Y409D01*
X2262Y409D01*
X2262Y411D01*
X2260Y411D01*
X2260Y413D01*
X2258Y413D01*
X2258Y415D01*
X2256Y415D01*
X2256Y417D01*
X2254Y417D01*
X2254Y421D01*
X2252Y421D01*
X2252Y423D01*
X2250Y423D01*
X2250Y427D01*
X2248Y427D01*
X2248Y433D01*
X2246Y433D01*
X2246Y441D01*
X2244Y441D01*
X2244Y453D01*
X2246Y453D01*
X2246Y463D01*
X2248Y463D01*
X2248Y467D01*
X2250Y467D01*
X2250Y471D01*
X2252Y471D01*
X2252Y475D01*
X2254Y475D01*
X2254Y477D01*
X2256Y477D01*
X2256Y479D01*
X2258Y479D01*
X2258Y483D01*
X2262Y483D01*
X2262Y485D01*
X2264Y485D01*
X2264Y487D01*
X2266Y487D01*
X2266Y507D01*
X2264Y507D01*
X2264Y509D01*
X2262Y509D01*
X2262Y511D01*
X2260Y511D01*
X2260Y513D01*
X2258Y513D01*
X2258Y515D01*
X2256Y515D01*
X2256Y517D01*
X2254Y517D01*
X2254Y521D01*
X2252Y521D01*
X2252Y523D01*
X2250Y523D01*
X2250Y527D01*
X2248Y527D01*
X2248Y533D01*
X2246Y533D01*
X2246Y541D01*
X2244Y541D01*
X2244Y553D01*
X2246Y553D01*
X2246Y563D01*
X2248Y563D01*
X2248Y567D01*
X2250Y567D01*
X2250Y571D01*
X2252Y571D01*
X2252Y575D01*
X2254Y575D01*
X2254Y577D01*
X2256Y577D01*
X2256Y579D01*
X2258Y579D01*
X2258Y583D01*
X2262Y583D01*
X2262Y585D01*
X2264Y585D01*
X2264Y587D01*
X2266Y587D01*
X2266Y607D01*
X2264Y607D01*
X2264Y609D01*
X2262Y609D01*
X2262Y611D01*
X2260Y611D01*
X2260Y613D01*
X2258Y613D01*
X2258Y615D01*
X2256Y615D01*
X2256Y617D01*
X2254Y617D01*
X2254Y621D01*
X2252Y621D01*
X2252Y623D01*
X2250Y623D01*
X2250Y627D01*
X2248Y627D01*
X2248Y633D01*
X2246Y633D01*
X2246Y641D01*
X2244Y641D01*
X2244Y653D01*
X2246Y653D01*
X2246Y663D01*
X2248Y663D01*
X2248Y667D01*
X2250Y667D01*
X2250Y671D01*
X2252Y671D01*
X2252Y675D01*
X2254Y675D01*
X2254Y677D01*
X2256Y677D01*
X2256Y679D01*
X2258Y679D01*
X2258Y683D01*
X2262Y683D01*
X2262Y685D01*
X2264Y685D01*
X2264Y687D01*
X2266Y687D01*
X2266Y707D01*
X2264Y707D01*
X2264Y709D01*
X2262Y709D01*
X2262Y711D01*
X2260Y711D01*
X2260Y713D01*
X2258Y713D01*
X2258Y715D01*
X2256Y715D01*
X2256Y717D01*
X2254Y717D01*
X2254Y721D01*
X2252Y721D01*
X2252Y723D01*
X2250Y723D01*
X2250Y727D01*
X2248Y727D01*
X2248Y733D01*
X2246Y733D01*
X2246Y741D01*
X2244Y741D01*
X2244Y753D01*
X2246Y753D01*
X2246Y763D01*
X2248Y763D01*
X2248Y767D01*
X2250Y767D01*
X2250Y771D01*
X2252Y771D01*
X2252Y775D01*
X2254Y775D01*
X2254Y777D01*
X2256Y777D01*
X2256Y779D01*
X2258Y779D01*
X2258Y783D01*
X2262Y783D01*
X2262Y785D01*
X2264Y785D01*
X2264Y787D01*
X2266Y787D01*
X2266Y807D01*
X2264Y807D01*
X2264Y809D01*
X2262Y809D01*
X2262Y811D01*
X2260Y811D01*
X2260Y813D01*
X2258Y813D01*
X2258Y815D01*
X2256Y815D01*
X2256Y817D01*
X2254Y817D01*
X2254Y821D01*
X2252Y821D01*
X2252Y823D01*
X2250Y823D01*
X2250Y827D01*
X2248Y827D01*
X2248Y833D01*
X2246Y833D01*
X2246Y841D01*
X2244Y841D01*
X2244Y853D01*
X2246Y853D01*
X2246Y863D01*
X2248Y863D01*
X2248Y867D01*
X2250Y867D01*
X2250Y871D01*
X2252Y871D01*
X2252Y875D01*
X2254Y875D01*
X2254Y877D01*
X2256Y877D01*
X2256Y879D01*
X2258Y879D01*
X2258Y883D01*
X2262Y883D01*
X2262Y885D01*
X2264Y885D01*
X2264Y887D01*
X2266Y887D01*
X2266Y907D01*
X2264Y907D01*
X2264Y909D01*
X2262Y909D01*
X2262Y911D01*
X2260Y911D01*
X2260Y913D01*
X2258Y913D01*
X2258Y915D01*
X2256Y915D01*
X2256Y917D01*
X2254Y917D01*
X2254Y921D01*
X2252Y921D01*
X2252Y923D01*
X2250Y923D01*
X2250Y927D01*
X2248Y927D01*
X2248Y933D01*
X2246Y933D01*
X2246Y941D01*
X2244Y941D01*
X2244Y953D01*
X2246Y953D01*
X2246Y963D01*
X2248Y963D01*
X2248Y967D01*
X2250Y967D01*
X2250Y971D01*
X2252Y971D01*
X2252Y975D01*
X2254Y975D01*
X2254Y977D01*
X2256Y977D01*
X2256Y979D01*
X2258Y979D01*
X2258Y983D01*
X2262Y983D01*
X2262Y985D01*
X2264Y985D01*
X2264Y987D01*
X2266Y987D01*
X2266Y1007D01*
X2264Y1007D01*
X2264Y1009D01*
X2262Y1009D01*
X2262Y1011D01*
X2260Y1011D01*
X2260Y1013D01*
X2258Y1013D01*
X2258Y1015D01*
X2256Y1015D01*
X2256Y1017D01*
X2254Y1017D01*
X2254Y1021D01*
X2252Y1021D01*
X2252Y1023D01*
X2250Y1023D01*
X2250Y1027D01*
X2248Y1027D01*
X2248Y1033D01*
X2246Y1033D01*
X2246Y1041D01*
X2244Y1041D01*
X2244Y1053D01*
X2246Y1053D01*
X2246Y1063D01*
X2248Y1063D01*
X2248Y1067D01*
X2250Y1067D01*
X2250Y1071D01*
X2252Y1071D01*
X2252Y1075D01*
X2254Y1075D01*
X2254Y1077D01*
X2256Y1077D01*
X2256Y1079D01*
X2258Y1079D01*
X2258Y1083D01*
X2262Y1083D01*
X2262Y1085D01*
X2264Y1085D01*
X2264Y1087D01*
X2266Y1087D01*
X2266Y1107D01*
X2264Y1107D01*
X2264Y1109D01*
X2262Y1109D01*
X2262Y1111D01*
X2260Y1111D01*
X2260Y1113D01*
X2258Y1113D01*
X2258Y1115D01*
X2256Y1115D01*
X2256Y1117D01*
X2254Y1117D01*
X2254Y1121D01*
X2252Y1121D01*
X2252Y1123D01*
X2250Y1123D01*
X2250Y1127D01*
X2248Y1127D01*
X2248Y1133D01*
X2246Y1133D01*
X2246Y1141D01*
X2244Y1141D01*
X2244Y1153D01*
X2246Y1153D01*
X2246Y1163D01*
X2248Y1163D01*
X2248Y1167D01*
X2250Y1167D01*
X2250Y1171D01*
X2252Y1171D01*
X2252Y1175D01*
X2254Y1175D01*
X2254Y1177D01*
X2256Y1177D01*
X2256Y1179D01*
X2258Y1179D01*
X2258Y1183D01*
X2262Y1183D01*
X2262Y1185D01*
X2264Y1185D01*
X2264Y1187D01*
X2266Y1187D01*
X2266Y1207D01*
X2264Y1207D01*
X2264Y1209D01*
X2262Y1209D01*
X2262Y1211D01*
X2260Y1211D01*
X2260Y1213D01*
X2258Y1213D01*
X2258Y1215D01*
X2256Y1215D01*
X2256Y1217D01*
X2254Y1217D01*
X2254Y1221D01*
X2252Y1221D01*
X2252Y1223D01*
X2250Y1223D01*
X2250Y1227D01*
X2248Y1227D01*
X2248Y1233D01*
X2246Y1233D01*
X2246Y1241D01*
X2244Y1241D01*
X2244Y1253D01*
X2246Y1253D01*
X2246Y1263D01*
X2248Y1263D01*
X2248Y1267D01*
X2250Y1267D01*
X2250Y1271D01*
X2252Y1271D01*
X2252Y1275D01*
X2254Y1275D01*
X2254Y1277D01*
X2256Y1277D01*
X2256Y1279D01*
X2258Y1279D01*
X2258Y1283D01*
X2262Y1283D01*
X2262Y1285D01*
X2264Y1285D01*
X2264Y1287D01*
X2266Y1287D01*
X2266Y1307D01*
X2264Y1307D01*
X2264Y1309D01*
X2262Y1309D01*
X2262Y1311D01*
X2260Y1311D01*
X2260Y1313D01*
X2258Y1313D01*
X2258Y1315D01*
X2256Y1315D01*
X2256Y1317D01*
X2254Y1317D01*
X2254Y1321D01*
X2252Y1321D01*
X2252Y1323D01*
X2250Y1323D01*
X2250Y1327D01*
X2248Y1327D01*
X2248Y1333D01*
X2246Y1333D01*
X2246Y1341D01*
X2244Y1341D01*
X2244Y1353D01*
X2246Y1353D01*
X2246Y1363D01*
X2248Y1363D01*
X2248Y1367D01*
X2250Y1367D01*
X2250Y1371D01*
X2252Y1371D01*
X2252Y1375D01*
X2254Y1375D01*
X2254Y1377D01*
X2256Y1377D01*
X2256Y1379D01*
X2258Y1379D01*
X2258Y1383D01*
X2262Y1383D01*
X2262Y1385D01*
X2264Y1385D01*
X2264Y1387D01*
X2266Y1387D01*
X2266Y1407D01*
X2264Y1407D01*
X2264Y1409D01*
X2262Y1409D01*
X2262Y1411D01*
X2260Y1411D01*
X2260Y1413D01*
X2258Y1413D01*
X2258Y1415D01*
X2256Y1415D01*
X2256Y1417D01*
X2254Y1417D01*
X2254Y1421D01*
X2252Y1421D01*
X2252Y1423D01*
X2250Y1423D01*
X2250Y1427D01*
X2248Y1427D01*
X2248Y1433D01*
X2246Y1433D01*
X2246Y1441D01*
X2244Y1441D01*
X2244Y1453D01*
X2246Y1453D01*
X2246Y1463D01*
X2248Y1463D01*
X2248Y1467D01*
X2250Y1467D01*
X2250Y1471D01*
X2252Y1471D01*
X2252Y1475D01*
X2254Y1475D01*
X2254Y1477D01*
X2256Y1477D01*
X2256Y1479D01*
X2258Y1479D01*
X2258Y1483D01*
X2262Y1483D01*
X2262Y1485D01*
X2264Y1485D01*
X2264Y1487D01*
X2266Y1487D01*
X2266Y1507D01*
X2264Y1507D01*
X2264Y1509D01*
X2262Y1509D01*
X2262Y1511D01*
X2260Y1511D01*
X2260Y1513D01*
X2258Y1513D01*
X2258Y1515D01*
X2256Y1515D01*
X2256Y1517D01*
X2254Y1517D01*
X2254Y1521D01*
X2252Y1521D01*
X2252Y1523D01*
X2250Y1523D01*
X2250Y1527D01*
X2248Y1527D01*
X2248Y1533D01*
X2246Y1533D01*
X2246Y1541D01*
X2244Y1541D01*
X2244Y1553D01*
X2246Y1553D01*
X2246Y1563D01*
X2248Y1563D01*
X2248Y1567D01*
X2250Y1567D01*
X2250Y1571D01*
X2252Y1571D01*
X2252Y1575D01*
X2254Y1575D01*
X2254Y1577D01*
X2256Y1577D01*
X2256Y1579D01*
X2258Y1579D01*
X2258Y1583D01*
X2262Y1583D01*
X2262Y1585D01*
X2264Y1585D01*
X2264Y1587D01*
X2266Y1587D01*
X2266Y1607D01*
X2264Y1607D01*
X2264Y1609D01*
X2262Y1609D01*
X2262Y1611D01*
X2260Y1611D01*
X2260Y1613D01*
X2258Y1613D01*
X2258Y1615D01*
X2256Y1615D01*
X2256Y1617D01*
X2254Y1617D01*
X2254Y1621D01*
X2252Y1621D01*
X2252Y1623D01*
X2250Y1623D01*
X2250Y1627D01*
X2248Y1627D01*
X2248Y1633D01*
X2246Y1633D01*
X2246Y1641D01*
X2244Y1641D01*
X2244Y1653D01*
X2246Y1653D01*
X2246Y1663D01*
X2248Y1663D01*
X2248Y1667D01*
X2250Y1667D01*
X2250Y1671D01*
X2252Y1671D01*
X2252Y1675D01*
X2254Y1675D01*
X2254Y1677D01*
X2256Y1677D01*
X2256Y1679D01*
X2258Y1679D01*
X2258Y1683D01*
X2262Y1683D01*
X2262Y1685D01*
X2264Y1685D01*
X2264Y1687D01*
X2266Y1687D01*
X2266Y1707D01*
X2264Y1707D01*
X2264Y1709D01*
X2262Y1709D01*
X2262Y1711D01*
X2260Y1711D01*
X2260Y1713D01*
X2258Y1713D01*
X2258Y1715D01*
X2256Y1715D01*
X2256Y1717D01*
X2254Y1717D01*
X2254Y1721D01*
X2252Y1721D01*
X2252Y1723D01*
X2250Y1723D01*
X2250Y1727D01*
X2248Y1727D01*
X2248Y1733D01*
X2246Y1733D01*
X2246Y1741D01*
X2244Y1741D01*
X2244Y1753D01*
X2246Y1753D01*
X2246Y1763D01*
X2248Y1763D01*
X2248Y1767D01*
X2250Y1767D01*
X2250Y1771D01*
X2252Y1771D01*
X2252Y1775D01*
X2254Y1775D01*
X2254Y1777D01*
X2256Y1777D01*
X2256Y1779D01*
X2258Y1779D01*
X2258Y1783D01*
X2262Y1783D01*
X2262Y1785D01*
X2264Y1785D01*
X2264Y1787D01*
X2266Y1787D01*
X2266Y1807D01*
X2264Y1807D01*
X2264Y1809D01*
X2262Y1809D01*
X2262Y1811D01*
X2260Y1811D01*
X2260Y1813D01*
X2258Y1813D01*
X2258Y1815D01*
X2256Y1815D01*
X2256Y1817D01*
X2254Y1817D01*
X2254Y1821D01*
X2252Y1821D01*
X2252Y1823D01*
X2250Y1823D01*
X2250Y1827D01*
X2248Y1827D01*
X2248Y1833D01*
X2246Y1833D01*
X2246Y1841D01*
X2244Y1841D01*
X2244Y1853D01*
X2246Y1853D01*
X2246Y1863D01*
X2248Y1863D01*
X2248Y1867D01*
X2250Y1867D01*
X2250Y1871D01*
X2252Y1871D01*
X2252Y1875D01*
X2254Y1875D01*
X2254Y1877D01*
X2256Y1877D01*
X2256Y1879D01*
X2258Y1879D01*
X2258Y1883D01*
X2262Y1883D01*
X2262Y1885D01*
X2264Y1885D01*
X2264Y1887D01*
X2266Y1887D01*
X2266Y1889D01*
X2270Y1889D01*
X2270Y1891D01*
X2274Y1891D01*
X2274Y1893D01*
X2278Y1893D01*
X2278Y1895D01*
X2288Y1895D01*
X2288Y1897D01*
X1420Y1897D01*
G37*
D02*
G36*
X2300Y1897D02*
X2300Y1895D01*
X2308Y1895D01*
X2308Y1893D01*
X2314Y1893D01*
X2314Y1891D01*
X2318Y1891D01*
X2318Y1889D01*
X2320Y1889D01*
X2320Y1887D01*
X2324Y1887D01*
X2324Y1885D01*
X2326Y1885D01*
X2326Y1883D01*
X2328Y1883D01*
X2328Y1881D01*
X2330Y1881D01*
X2330Y1879D01*
X2332Y1879D01*
X2332Y1877D01*
X2334Y1877D01*
X2334Y1875D01*
X2354Y1875D01*
X2354Y1877D01*
X2356Y1877D01*
X2356Y1879D01*
X2358Y1879D01*
X2358Y1883D01*
X2362Y1883D01*
X2362Y1885D01*
X2364Y1885D01*
X2364Y1887D01*
X2366Y1887D01*
X2366Y1889D01*
X2370Y1889D01*
X2370Y1891D01*
X2374Y1891D01*
X2374Y1893D01*
X2378Y1893D01*
X2378Y1895D01*
X2388Y1895D01*
X2388Y1897D01*
X2300Y1897D01*
G37*
D02*
G36*
X2400Y1897D02*
X2400Y1895D01*
X2408Y1895D01*
X2408Y1893D01*
X2414Y1893D01*
X2414Y1891D01*
X2418Y1891D01*
X2418Y1889D01*
X2420Y1889D01*
X2420Y1887D01*
X2424Y1887D01*
X2424Y1885D01*
X2426Y1885D01*
X2426Y1883D01*
X2428Y1883D01*
X2428Y1881D01*
X2430Y1881D01*
X2430Y1879D01*
X2432Y1879D01*
X2432Y1877D01*
X2434Y1877D01*
X2434Y1875D01*
X2454Y1875D01*
X2454Y1877D01*
X2456Y1877D01*
X2456Y1879D01*
X2458Y1879D01*
X2458Y1883D01*
X2462Y1883D01*
X2462Y1885D01*
X2464Y1885D01*
X2464Y1887D01*
X2466Y1887D01*
X2466Y1889D01*
X2470Y1889D01*
X2470Y1891D01*
X2474Y1891D01*
X2474Y1893D01*
X2478Y1893D01*
X2478Y1895D01*
X2488Y1895D01*
X2488Y1897D01*
X2400Y1897D01*
G37*
D02*
G36*
X2520Y1797D02*
X2520Y1787D01*
X2524Y1787D01*
X2524Y1785D01*
X2526Y1785D01*
X2526Y1783D01*
X2528Y1783D01*
X2528Y1781D01*
X2530Y1781D01*
X2530Y1779D01*
X2532Y1779D01*
X2532Y1777D01*
X2534Y1777D01*
X2534Y1773D01*
X2536Y1773D01*
X2536Y1769D01*
X2538Y1769D01*
X2538Y1765D01*
X2540Y1765D01*
X2540Y1759D01*
X2542Y1759D01*
X2542Y1737D01*
X2540Y1737D01*
X2540Y1729D01*
X2538Y1729D01*
X2538Y1725D01*
X2536Y1725D01*
X2536Y1721D01*
X2534Y1721D01*
X2534Y1719D01*
X2532Y1719D01*
X2532Y1717D01*
X2530Y1717D01*
X2530Y1713D01*
X2528Y1713D01*
X2528Y1711D01*
X2524Y1711D01*
X2524Y1709D01*
X2522Y1709D01*
X2522Y1707D01*
X2520Y1707D01*
X2520Y1697D01*
X3088Y1697D01*
X3088Y1699D01*
X3078Y1699D01*
X3078Y1701D01*
X3074Y1701D01*
X3074Y1703D01*
X3070Y1703D01*
X3070Y1705D01*
X3066Y1705D01*
X3066Y1707D01*
X3064Y1707D01*
X3064Y1709D01*
X3060Y1709D01*
X3060Y1711D01*
X3058Y1711D01*
X3058Y1713D01*
X3056Y1713D01*
X3056Y1717D01*
X3054Y1717D01*
X3054Y1719D01*
X3052Y1719D01*
X3052Y1721D01*
X3050Y1721D01*
X3050Y1725D01*
X3048Y1725D01*
X3048Y1729D01*
X3046Y1729D01*
X3046Y1735D01*
X3044Y1735D01*
X3044Y1759D01*
X3046Y1759D01*
X3046Y1765D01*
X3048Y1765D01*
X3048Y1769D01*
X3050Y1769D01*
X3050Y1773D01*
X3052Y1773D01*
X3052Y1777D01*
X3054Y1777D01*
X3054Y1779D01*
X3056Y1779D01*
X3056Y1781D01*
X3058Y1781D01*
X3058Y1783D01*
X3060Y1783D01*
X3060Y1785D01*
X3062Y1785D01*
X3062Y1787D01*
X3064Y1787D01*
X3064Y1789D01*
X3068Y1789D01*
X3068Y1791D01*
X3072Y1791D01*
X3072Y1793D01*
X3076Y1793D01*
X3076Y1795D01*
X3082Y1795D01*
X3082Y1797D01*
X2520Y1797D01*
G37*
D02*
G36*
X2520Y1697D02*
X2520Y1695D01*
X3384Y1695D01*
X3384Y1697D01*
X2520Y1697D01*
G37*
D02*
G36*
X2520Y1697D02*
X2520Y1695D01*
X3384Y1695D01*
X3384Y1697D01*
X2520Y1697D01*
G37*
D02*
G36*
X2520Y1695D02*
X2520Y1687D01*
X2524Y1687D01*
X2524Y1685D01*
X2526Y1685D01*
X2526Y1683D01*
X2528Y1683D01*
X2528Y1681D01*
X2530Y1681D01*
X2530Y1679D01*
X2532Y1679D01*
X2532Y1677D01*
X2534Y1677D01*
X2534Y1673D01*
X2536Y1673D01*
X2536Y1669D01*
X2538Y1669D01*
X2538Y1665D01*
X2540Y1665D01*
X2540Y1659D01*
X2542Y1659D01*
X2542Y1637D01*
X2540Y1637D01*
X2540Y1629D01*
X2538Y1629D01*
X2538Y1625D01*
X2536Y1625D01*
X2536Y1621D01*
X2534Y1621D01*
X2534Y1619D01*
X2532Y1619D01*
X2532Y1617D01*
X2530Y1617D01*
X2530Y1613D01*
X2528Y1613D01*
X2528Y1611D01*
X2524Y1611D01*
X2524Y1609D01*
X2522Y1609D01*
X2522Y1607D01*
X2520Y1607D01*
X2520Y1601D01*
X3100Y1601D01*
X3100Y1599D01*
X3110Y1599D01*
X3110Y1597D01*
X3114Y1597D01*
X3114Y1595D01*
X3118Y1595D01*
X3118Y1593D01*
X3122Y1593D01*
X3122Y1591D01*
X3124Y1591D01*
X3124Y1589D01*
X3126Y1589D01*
X3126Y1587D01*
X3128Y1587D01*
X3128Y1585D01*
X3130Y1585D01*
X3130Y1583D01*
X3132Y1583D01*
X3132Y1581D01*
X3134Y1581D01*
X3134Y1579D01*
X3136Y1579D01*
X3136Y1575D01*
X3138Y1575D01*
X3138Y1571D01*
X3140Y1571D01*
X3140Y1567D01*
X3142Y1567D01*
X3142Y1557D01*
X3144Y1557D01*
X3144Y1545D01*
X3142Y1545D01*
X3142Y1535D01*
X3140Y1535D01*
X3140Y1531D01*
X3138Y1531D01*
X3138Y1527D01*
X3136Y1527D01*
X3136Y1523D01*
X3134Y1523D01*
X3134Y1521D01*
X3132Y1521D01*
X3132Y1517D01*
X3130Y1517D01*
X3130Y1515D01*
X3128Y1515D01*
X3128Y1513D01*
X3124Y1513D01*
X3124Y1511D01*
X3122Y1511D01*
X3122Y1509D01*
X3120Y1509D01*
X3120Y1507D01*
X3116Y1507D01*
X3116Y1505D01*
X3112Y1505D01*
X3112Y1503D01*
X3104Y1503D01*
X3104Y1501D01*
X3384Y1501D01*
X3384Y1695D01*
X2520Y1695D01*
G37*
D02*
G36*
X2520Y1601D02*
X2520Y1587D01*
X2524Y1587D01*
X2524Y1585D01*
X2526Y1585D01*
X2526Y1583D01*
X2528Y1583D01*
X2528Y1581D01*
X2530Y1581D01*
X2530Y1579D01*
X2532Y1579D01*
X2532Y1577D01*
X2534Y1577D01*
X2534Y1573D01*
X2536Y1573D01*
X2536Y1569D01*
X2538Y1569D01*
X2538Y1565D01*
X2540Y1565D01*
X2540Y1559D01*
X2542Y1559D01*
X2542Y1537D01*
X2540Y1537D01*
X2540Y1529D01*
X2538Y1529D01*
X2538Y1525D01*
X2536Y1525D01*
X2536Y1521D01*
X2534Y1521D01*
X2534Y1519D01*
X2532Y1519D01*
X2532Y1517D01*
X2530Y1517D01*
X2530Y1513D01*
X2528Y1513D01*
X2528Y1511D01*
X2524Y1511D01*
X2524Y1509D01*
X2522Y1509D01*
X2522Y1507D01*
X2520Y1507D01*
X2520Y1501D01*
X3082Y1501D01*
X3082Y1503D01*
X3076Y1503D01*
X3076Y1505D01*
X3072Y1505D01*
X3072Y1507D01*
X3068Y1507D01*
X3068Y1509D01*
X3064Y1509D01*
X3064Y1511D01*
X3062Y1511D01*
X3062Y1513D01*
X3060Y1513D01*
X3060Y1515D01*
X3058Y1515D01*
X3058Y1517D01*
X3056Y1517D01*
X3056Y1519D01*
X3054Y1519D01*
X3054Y1521D01*
X3052Y1521D01*
X3052Y1525D01*
X3050Y1525D01*
X3050Y1529D01*
X3048Y1529D01*
X3048Y1533D01*
X3046Y1533D01*
X3046Y1539D01*
X3044Y1539D01*
X3044Y1563D01*
X3046Y1563D01*
X3046Y1569D01*
X3048Y1569D01*
X3048Y1573D01*
X3050Y1573D01*
X3050Y1577D01*
X3052Y1577D01*
X3052Y1579D01*
X3054Y1579D01*
X3054Y1583D01*
X3056Y1583D01*
X3056Y1585D01*
X3058Y1585D01*
X3058Y1587D01*
X3060Y1587D01*
X3060Y1589D01*
X3064Y1589D01*
X3064Y1591D01*
X3066Y1591D01*
X3066Y1593D01*
X3070Y1593D01*
X3070Y1595D01*
X3072Y1595D01*
X3072Y1597D01*
X3078Y1597D01*
X3078Y1599D01*
X3086Y1599D01*
X3086Y1601D01*
X2520Y1601D01*
G37*
D02*
G36*
X2520Y1501D02*
X2520Y1499D01*
X3384Y1499D01*
X3384Y1501D01*
X2520Y1501D01*
G37*
D02*
G36*
X2520Y1501D02*
X2520Y1499D01*
X3384Y1499D01*
X3384Y1501D01*
X2520Y1501D01*
G37*
D02*
G36*
X2520Y1499D02*
X2520Y1487D01*
X2524Y1487D01*
X2524Y1485D01*
X2526Y1485D01*
X2526Y1483D01*
X2528Y1483D01*
X2528Y1481D01*
X2530Y1481D01*
X2530Y1479D01*
X2532Y1479D01*
X2532Y1477D01*
X2534Y1477D01*
X2534Y1473D01*
X2536Y1473D01*
X2536Y1469D01*
X2538Y1469D01*
X2538Y1465D01*
X2540Y1465D01*
X2540Y1459D01*
X2542Y1459D01*
X2542Y1437D01*
X2540Y1437D01*
X2540Y1429D01*
X2538Y1429D01*
X2538Y1425D01*
X2536Y1425D01*
X2536Y1421D01*
X2534Y1421D01*
X2534Y1419D01*
X2532Y1419D01*
X2532Y1417D01*
X2530Y1417D01*
X2530Y1413D01*
X2528Y1413D01*
X2528Y1411D01*
X2524Y1411D01*
X2524Y1409D01*
X2522Y1409D01*
X2522Y1407D01*
X2520Y1407D01*
X2520Y1387D01*
X2524Y1387D01*
X2524Y1385D01*
X2526Y1385D01*
X2526Y1383D01*
X2528Y1383D01*
X2528Y1381D01*
X2530Y1381D01*
X2530Y1379D01*
X2532Y1379D01*
X2532Y1377D01*
X2534Y1377D01*
X2534Y1373D01*
X2536Y1373D01*
X2536Y1369D01*
X2538Y1369D01*
X2538Y1365D01*
X2540Y1365D01*
X2540Y1359D01*
X2542Y1359D01*
X2542Y1337D01*
X2540Y1337D01*
X2540Y1329D01*
X2538Y1329D01*
X2538Y1325D01*
X2536Y1325D01*
X2536Y1321D01*
X2534Y1321D01*
X2534Y1319D01*
X2532Y1319D01*
X2532Y1317D01*
X2530Y1317D01*
X2530Y1313D01*
X2528Y1313D01*
X2528Y1311D01*
X2524Y1311D01*
X2524Y1309D01*
X2522Y1309D01*
X2522Y1307D01*
X2520Y1307D01*
X2520Y1297D01*
X3106Y1297D01*
X3106Y1295D01*
X3112Y1295D01*
X3112Y1293D01*
X3116Y1293D01*
X3116Y1291D01*
X3120Y1291D01*
X3120Y1289D01*
X3122Y1289D01*
X3122Y1287D01*
X3126Y1287D01*
X3126Y1285D01*
X3128Y1285D01*
X3128Y1283D01*
X3130Y1283D01*
X3130Y1281D01*
X3132Y1281D01*
X3132Y1277D01*
X3134Y1277D01*
X3134Y1275D01*
X3136Y1275D01*
X3136Y1271D01*
X3138Y1271D01*
X3138Y1267D01*
X3140Y1267D01*
X3140Y1263D01*
X3142Y1263D01*
X3142Y1253D01*
X3144Y1253D01*
X3144Y1241D01*
X3142Y1241D01*
X3142Y1233D01*
X3140Y1233D01*
X3140Y1227D01*
X3138Y1227D01*
X3138Y1223D01*
X3136Y1223D01*
X3136Y1219D01*
X3134Y1219D01*
X3134Y1217D01*
X3132Y1217D01*
X3132Y1215D01*
X3130Y1215D01*
X3130Y1213D01*
X3128Y1213D01*
X3128Y1211D01*
X3126Y1211D01*
X3126Y1209D01*
X3124Y1209D01*
X3124Y1207D01*
X3122Y1207D01*
X3122Y1205D01*
X3118Y1205D01*
X3118Y1203D01*
X3114Y1203D01*
X3114Y1201D01*
X3108Y1201D01*
X3108Y1199D01*
X3100Y1199D01*
X3100Y1197D01*
X3082Y1197D01*
X3082Y1193D01*
X3080Y1193D01*
X3080Y1191D01*
X3078Y1191D01*
X3078Y1189D01*
X3076Y1189D01*
X3076Y1185D01*
X3074Y1185D01*
X3074Y1183D01*
X3072Y1183D01*
X3072Y1181D01*
X3070Y1181D01*
X3070Y1177D01*
X3068Y1177D01*
X3068Y1175D01*
X3066Y1175D01*
X3066Y1173D01*
X3064Y1173D01*
X3064Y1169D01*
X3062Y1169D01*
X3062Y1167D01*
X3060Y1167D01*
X3060Y1163D01*
X3058Y1163D01*
X3058Y1161D01*
X3056Y1161D01*
X3056Y1159D01*
X3054Y1159D01*
X3054Y1155D01*
X3052Y1155D01*
X3052Y1153D01*
X3050Y1153D01*
X3050Y1151D01*
X3048Y1151D01*
X3048Y1147D01*
X3046Y1147D01*
X3046Y1145D01*
X3044Y1145D01*
X3044Y1143D01*
X3042Y1143D01*
X3042Y1139D01*
X3040Y1139D01*
X3040Y1137D01*
X3038Y1137D01*
X3038Y1135D01*
X3036Y1135D01*
X3036Y1131D01*
X3034Y1131D01*
X3034Y1129D01*
X3032Y1129D01*
X3032Y1127D01*
X3030Y1127D01*
X3030Y1123D01*
X3028Y1123D01*
X3028Y1121D01*
X3026Y1121D01*
X3026Y1119D01*
X3024Y1119D01*
X3024Y1115D01*
X3022Y1115D01*
X3022Y1113D01*
X3020Y1113D01*
X3020Y1109D01*
X3018Y1109D01*
X3018Y1107D01*
X3016Y1107D01*
X3016Y1105D01*
X3014Y1105D01*
X3014Y1101D01*
X3100Y1101D01*
X3100Y1099D01*
X3110Y1099D01*
X3110Y1097D01*
X3114Y1097D01*
X3114Y1095D01*
X3118Y1095D01*
X3118Y1093D01*
X3122Y1093D01*
X3122Y1091D01*
X3124Y1091D01*
X3124Y1089D01*
X3126Y1089D01*
X3126Y1087D01*
X3128Y1087D01*
X3128Y1085D01*
X3130Y1085D01*
X3130Y1083D01*
X3132Y1083D01*
X3132Y1081D01*
X3134Y1081D01*
X3134Y1079D01*
X3136Y1079D01*
X3136Y1075D01*
X3138Y1075D01*
X3138Y1071D01*
X3140Y1071D01*
X3140Y1067D01*
X3142Y1067D01*
X3142Y1057D01*
X3144Y1057D01*
X3144Y1045D01*
X3142Y1045D01*
X3142Y1035D01*
X3140Y1035D01*
X3140Y1031D01*
X3138Y1031D01*
X3138Y1027D01*
X3136Y1027D01*
X3136Y1023D01*
X3134Y1023D01*
X3134Y1021D01*
X3132Y1021D01*
X3132Y1017D01*
X3130Y1017D01*
X3130Y1015D01*
X3128Y1015D01*
X3128Y1013D01*
X3124Y1013D01*
X3124Y1011D01*
X3122Y1011D01*
X3122Y1009D01*
X3120Y1009D01*
X3120Y1007D01*
X3116Y1007D01*
X3116Y1005D01*
X3112Y1005D01*
X3112Y1003D01*
X3104Y1003D01*
X3104Y1001D01*
X3384Y1001D01*
X3384Y1499D01*
X2520Y1499D01*
G37*
D02*
G36*
X2520Y1297D02*
X2520Y1287D01*
X2524Y1287D01*
X2524Y1285D01*
X2526Y1285D01*
X2526Y1283D01*
X2528Y1283D01*
X2528Y1281D01*
X2530Y1281D01*
X2530Y1279D01*
X2532Y1279D01*
X2532Y1277D01*
X2534Y1277D01*
X2534Y1273D01*
X2536Y1273D01*
X2536Y1269D01*
X2538Y1269D01*
X2538Y1265D01*
X2540Y1265D01*
X2540Y1259D01*
X2542Y1259D01*
X2542Y1237D01*
X2540Y1237D01*
X2540Y1229D01*
X2538Y1229D01*
X2538Y1225D01*
X2536Y1225D01*
X2536Y1221D01*
X2534Y1221D01*
X2534Y1219D01*
X2532Y1219D01*
X2532Y1217D01*
X2530Y1217D01*
X2530Y1213D01*
X2528Y1213D01*
X2528Y1211D01*
X2524Y1211D01*
X2524Y1209D01*
X2522Y1209D01*
X2522Y1207D01*
X2520Y1207D01*
X2520Y1187D01*
X2524Y1187D01*
X2524Y1185D01*
X2526Y1185D01*
X2526Y1183D01*
X2528Y1183D01*
X2528Y1181D01*
X2530Y1181D01*
X2530Y1179D01*
X2532Y1179D01*
X2532Y1177D01*
X2534Y1177D01*
X2534Y1173D01*
X2536Y1173D01*
X2536Y1169D01*
X2538Y1169D01*
X2538Y1165D01*
X2540Y1165D01*
X2540Y1159D01*
X2542Y1159D01*
X2542Y1137D01*
X2540Y1137D01*
X2540Y1129D01*
X2538Y1129D01*
X2538Y1125D01*
X2536Y1125D01*
X2536Y1121D01*
X2534Y1121D01*
X2534Y1119D01*
X2532Y1119D01*
X2532Y1117D01*
X2530Y1117D01*
X2530Y1113D01*
X2528Y1113D01*
X2528Y1111D01*
X2524Y1111D01*
X2524Y1109D01*
X2522Y1109D01*
X2522Y1107D01*
X2520Y1107D01*
X2520Y1087D01*
X2524Y1087D01*
X2524Y1085D01*
X2526Y1085D01*
X2526Y1083D01*
X2528Y1083D01*
X2528Y1081D01*
X2530Y1081D01*
X2530Y1079D01*
X2532Y1079D01*
X2532Y1077D01*
X2534Y1077D01*
X2534Y1073D01*
X2536Y1073D01*
X2536Y1069D01*
X2538Y1069D01*
X2538Y1065D01*
X2540Y1065D01*
X2540Y1059D01*
X2542Y1059D01*
X2542Y1037D01*
X2540Y1037D01*
X2540Y1029D01*
X2538Y1029D01*
X2538Y1025D01*
X2536Y1025D01*
X2536Y1021D01*
X2534Y1021D01*
X2534Y1019D01*
X2532Y1019D01*
X2532Y1017D01*
X2530Y1017D01*
X2530Y1013D01*
X2528Y1013D01*
X2528Y1011D01*
X2524Y1011D01*
X2524Y1009D01*
X2522Y1009D01*
X2522Y1007D01*
X2520Y1007D01*
X2520Y987D01*
X2524Y987D01*
X2524Y985D01*
X2526Y985D01*
X2526Y983D01*
X2528Y983D01*
X2528Y981D01*
X2530Y981D01*
X2530Y979D01*
X2532Y979D01*
X2532Y977D01*
X2534Y977D01*
X2534Y973D01*
X2536Y973D01*
X2536Y969D01*
X2538Y969D01*
X2538Y965D01*
X2540Y965D01*
X2540Y959D01*
X2542Y959D01*
X2542Y937D01*
X2540Y937D01*
X2540Y929D01*
X2538Y929D01*
X2538Y925D01*
X2536Y925D01*
X2536Y921D01*
X2534Y921D01*
X2534Y919D01*
X2532Y919D01*
X2532Y917D01*
X2530Y917D01*
X2530Y913D01*
X2528Y913D01*
X2528Y911D01*
X2524Y911D01*
X2524Y909D01*
X2522Y909D01*
X2522Y907D01*
X2520Y907D01*
X2520Y887D01*
X2524Y887D01*
X2524Y885D01*
X2526Y885D01*
X2526Y883D01*
X2528Y883D01*
X2528Y881D01*
X2530Y881D01*
X2530Y879D01*
X2532Y879D01*
X2532Y877D01*
X2534Y877D01*
X2534Y873D01*
X2536Y873D01*
X2536Y869D01*
X2538Y869D01*
X2538Y865D01*
X2540Y865D01*
X2540Y859D01*
X2542Y859D01*
X2542Y837D01*
X2540Y837D01*
X2540Y829D01*
X2538Y829D01*
X2538Y825D01*
X2536Y825D01*
X2536Y821D01*
X2534Y821D01*
X2534Y819D01*
X2532Y819D01*
X2532Y817D01*
X2530Y817D01*
X2530Y813D01*
X2528Y813D01*
X2528Y811D01*
X2524Y811D01*
X2524Y809D01*
X2522Y809D01*
X2522Y807D01*
X2520Y807D01*
X2520Y787D01*
X2524Y787D01*
X2524Y785D01*
X2526Y785D01*
X2526Y783D01*
X2528Y783D01*
X2528Y781D01*
X2530Y781D01*
X2530Y779D01*
X2532Y779D01*
X2532Y777D01*
X2534Y777D01*
X2534Y773D01*
X2536Y773D01*
X2536Y769D01*
X2538Y769D01*
X2538Y765D01*
X2540Y765D01*
X2540Y759D01*
X2542Y759D01*
X2542Y737D01*
X2540Y737D01*
X2540Y729D01*
X2538Y729D01*
X2538Y725D01*
X2536Y725D01*
X2536Y721D01*
X2534Y721D01*
X2534Y719D01*
X2532Y719D01*
X2532Y717D01*
X2530Y717D01*
X2530Y713D01*
X2528Y713D01*
X2528Y711D01*
X2524Y711D01*
X2524Y709D01*
X2522Y709D01*
X2522Y707D01*
X2520Y707D01*
X2520Y687D01*
X2524Y687D01*
X2524Y685D01*
X2526Y685D01*
X2526Y683D01*
X2528Y683D01*
X2528Y681D01*
X2530Y681D01*
X2530Y679D01*
X2532Y679D01*
X2532Y677D01*
X2534Y677D01*
X2534Y673D01*
X2536Y673D01*
X2536Y669D01*
X2538Y669D01*
X2538Y665D01*
X2540Y665D01*
X2540Y659D01*
X2542Y659D01*
X2542Y637D01*
X2540Y637D01*
X2540Y629D01*
X2538Y629D01*
X2538Y625D01*
X2536Y625D01*
X2536Y621D01*
X2534Y621D01*
X2534Y619D01*
X2532Y619D01*
X2532Y617D01*
X2530Y617D01*
X2530Y613D01*
X2528Y613D01*
X2528Y611D01*
X2524Y611D01*
X2524Y609D01*
X2522Y609D01*
X2522Y607D01*
X2520Y607D01*
X2520Y587D01*
X2524Y587D01*
X2524Y585D01*
X2526Y585D01*
X2526Y583D01*
X2528Y583D01*
X2528Y581D01*
X2530Y581D01*
X2530Y579D01*
X2532Y579D01*
X2532Y577D01*
X2534Y577D01*
X2534Y573D01*
X2536Y573D01*
X2536Y569D01*
X2538Y569D01*
X2538Y565D01*
X2540Y565D01*
X2540Y559D01*
X2542Y559D01*
X2542Y537D01*
X2540Y537D01*
X2540Y529D01*
X2538Y529D01*
X2538Y525D01*
X2536Y525D01*
X2536Y521D01*
X2534Y521D01*
X2534Y519D01*
X2532Y519D01*
X2532Y517D01*
X2530Y517D01*
X2530Y513D01*
X2528Y513D01*
X2528Y511D01*
X2524Y511D01*
X2524Y509D01*
X2522Y509D01*
X2522Y507D01*
X2520Y507D01*
X2520Y487D01*
X2524Y487D01*
X2524Y485D01*
X2526Y485D01*
X2526Y483D01*
X2528Y483D01*
X2528Y481D01*
X2530Y481D01*
X2530Y479D01*
X2532Y479D01*
X2532Y477D01*
X2534Y477D01*
X2534Y473D01*
X2536Y473D01*
X2536Y469D01*
X2538Y469D01*
X2538Y465D01*
X2540Y465D01*
X2540Y459D01*
X2542Y459D01*
X2542Y437D01*
X2540Y437D01*
X2540Y429D01*
X2538Y429D01*
X2538Y425D01*
X2536Y425D01*
X2536Y421D01*
X2534Y421D01*
X2534Y419D01*
X2532Y419D01*
X2532Y417D01*
X2530Y417D01*
X2530Y413D01*
X2528Y413D01*
X2528Y411D01*
X2524Y411D01*
X2524Y409D01*
X2522Y409D01*
X2522Y407D01*
X2520Y407D01*
X2520Y405D01*
X2516Y405D01*
X2516Y403D01*
X2512Y403D01*
X2512Y401D01*
X2504Y401D01*
X2504Y399D01*
X2924Y399D01*
X2924Y1055D01*
X2926Y1055D01*
X2926Y1059D01*
X2928Y1059D01*
X2928Y1063D01*
X2930Y1063D01*
X2930Y1065D01*
X2932Y1065D01*
X2932Y1067D01*
X2934Y1067D01*
X2934Y1071D01*
X2936Y1071D01*
X2936Y1073D01*
X2938Y1073D01*
X2938Y1075D01*
X2940Y1075D01*
X2940Y1079D01*
X2942Y1079D01*
X2942Y1081D01*
X2944Y1081D01*
X2944Y1085D01*
X2946Y1085D01*
X2946Y1087D01*
X2948Y1087D01*
X2948Y1089D01*
X2950Y1089D01*
X2950Y1093D01*
X2952Y1093D01*
X2952Y1095D01*
X2954Y1095D01*
X2954Y1097D01*
X2956Y1097D01*
X2956Y1101D01*
X2958Y1101D01*
X2958Y1103D01*
X2960Y1103D01*
X2960Y1105D01*
X2962Y1105D01*
X2962Y1109D01*
X2964Y1109D01*
X2964Y1111D01*
X2966Y1111D01*
X2966Y1113D01*
X2968Y1113D01*
X2968Y1117D01*
X2970Y1117D01*
X2970Y1119D01*
X2972Y1119D01*
X2972Y1121D01*
X2974Y1121D01*
X2974Y1125D01*
X2976Y1125D01*
X2976Y1127D01*
X2978Y1127D01*
X2978Y1129D01*
X2980Y1129D01*
X2980Y1133D01*
X2982Y1133D01*
X2982Y1135D01*
X2984Y1135D01*
X2984Y1139D01*
X2986Y1139D01*
X2986Y1141D01*
X2988Y1141D01*
X2988Y1143D01*
X2990Y1143D01*
X2990Y1147D01*
X2992Y1147D01*
X2992Y1149D01*
X2994Y1149D01*
X2994Y1151D01*
X2996Y1151D01*
X2996Y1155D01*
X2998Y1155D01*
X2998Y1157D01*
X3000Y1157D01*
X3000Y1159D01*
X3002Y1159D01*
X3002Y1163D01*
X3004Y1163D01*
X3004Y1165D01*
X3006Y1165D01*
X3006Y1167D01*
X3008Y1167D01*
X3008Y1171D01*
X3010Y1171D01*
X3010Y1173D01*
X3012Y1173D01*
X3012Y1175D01*
X3014Y1175D01*
X3014Y1179D01*
X3016Y1179D01*
X3016Y1181D01*
X3018Y1181D01*
X3018Y1183D01*
X3020Y1183D01*
X3020Y1187D01*
X3022Y1187D01*
X3022Y1189D01*
X3024Y1189D01*
X3024Y1193D01*
X3026Y1193D01*
X3026Y1195D01*
X3028Y1195D01*
X3028Y1197D01*
X3030Y1197D01*
X3030Y1201D01*
X3032Y1201D01*
X3032Y1203D01*
X3034Y1203D01*
X3034Y1205D01*
X3036Y1205D01*
X3036Y1209D01*
X3038Y1209D01*
X3038Y1211D01*
X3040Y1211D01*
X3040Y1213D01*
X3042Y1213D01*
X3042Y1217D01*
X3044Y1217D01*
X3044Y1259D01*
X3046Y1259D01*
X3046Y1265D01*
X3048Y1265D01*
X3048Y1269D01*
X3050Y1269D01*
X3050Y1273D01*
X3052Y1273D01*
X3052Y1277D01*
X3054Y1277D01*
X3054Y1279D01*
X3056Y1279D01*
X3056Y1281D01*
X3058Y1281D01*
X3058Y1283D01*
X3060Y1283D01*
X3060Y1285D01*
X3062Y1285D01*
X3062Y1287D01*
X3064Y1287D01*
X3064Y1289D01*
X3068Y1289D01*
X3068Y1291D01*
X3072Y1291D01*
X3072Y1293D01*
X3076Y1293D01*
X3076Y1295D01*
X3082Y1295D01*
X3082Y1297D01*
X2520Y1297D01*
G37*
D02*
G36*
X3012Y1101D02*
X3012Y1099D01*
X3010Y1099D01*
X3010Y1097D01*
X3008Y1097D01*
X3008Y1093D01*
X3006Y1093D01*
X3006Y1091D01*
X3004Y1091D01*
X3004Y1089D01*
X3002Y1089D01*
X3002Y1085D01*
X3000Y1085D01*
X3000Y1083D01*
X2998Y1083D01*
X2998Y1081D01*
X2996Y1081D01*
X2996Y1077D01*
X2994Y1077D01*
X2994Y1075D01*
X2992Y1075D01*
X2992Y1073D01*
X2990Y1073D01*
X2990Y1069D01*
X2988Y1069D01*
X2988Y1067D01*
X2986Y1067D01*
X2986Y1065D01*
X2984Y1065D01*
X2984Y1061D01*
X2982Y1061D01*
X2982Y1059D01*
X2980Y1059D01*
X2980Y1055D01*
X2978Y1055D01*
X2978Y1053D01*
X2976Y1053D01*
X2976Y1051D01*
X2974Y1051D01*
X2974Y1047D01*
X2972Y1047D01*
X2972Y1045D01*
X2970Y1045D01*
X2970Y1043D01*
X2968Y1043D01*
X2968Y1001D01*
X3082Y1001D01*
X3082Y1003D01*
X3076Y1003D01*
X3076Y1005D01*
X3072Y1005D01*
X3072Y1007D01*
X3068Y1007D01*
X3068Y1009D01*
X3064Y1009D01*
X3064Y1011D01*
X3062Y1011D01*
X3062Y1013D01*
X3060Y1013D01*
X3060Y1015D01*
X3058Y1015D01*
X3058Y1017D01*
X3056Y1017D01*
X3056Y1019D01*
X3054Y1019D01*
X3054Y1021D01*
X3052Y1021D01*
X3052Y1025D01*
X3050Y1025D01*
X3050Y1029D01*
X3048Y1029D01*
X3048Y1033D01*
X3046Y1033D01*
X3046Y1039D01*
X3044Y1039D01*
X3044Y1063D01*
X3046Y1063D01*
X3046Y1069D01*
X3048Y1069D01*
X3048Y1073D01*
X3050Y1073D01*
X3050Y1077D01*
X3052Y1077D01*
X3052Y1079D01*
X3054Y1079D01*
X3054Y1083D01*
X3056Y1083D01*
X3056Y1085D01*
X3058Y1085D01*
X3058Y1087D01*
X3060Y1087D01*
X3060Y1089D01*
X3064Y1089D01*
X3064Y1091D01*
X3066Y1091D01*
X3066Y1093D01*
X3070Y1093D01*
X3070Y1095D01*
X3072Y1095D01*
X3072Y1097D01*
X3078Y1097D01*
X3078Y1099D01*
X3086Y1099D01*
X3086Y1101D01*
X3012Y1101D01*
G37*
D02*
G36*
X2968Y1001D02*
X2968Y999D01*
X3384Y999D01*
X3384Y1001D01*
X2968Y1001D01*
G37*
D02*
G36*
X2968Y1001D02*
X2968Y999D01*
X3384Y999D01*
X3384Y1001D01*
X2968Y1001D01*
G37*
D02*
G36*
X2968Y999D02*
X2968Y255D01*
X3312Y255D01*
X3312Y253D01*
X3322Y253D01*
X3322Y251D01*
X3328Y251D01*
X3328Y249D01*
X3334Y249D01*
X3334Y247D01*
X3338Y247D01*
X3338Y245D01*
X3342Y245D01*
X3342Y243D01*
X3346Y243D01*
X3346Y241D01*
X3350Y241D01*
X3350Y239D01*
X3352Y239D01*
X3352Y237D01*
X3356Y237D01*
X3356Y235D01*
X3358Y235D01*
X3358Y233D01*
X3362Y233D01*
X3362Y231D01*
X3364Y231D01*
X3364Y229D01*
X3384Y229D01*
X3384Y999D01*
X2968Y999D01*
G37*
D02*
G36*
X1412Y503D02*
X1412Y501D01*
X1404Y501D01*
X1404Y499D01*
X1438Y499D01*
X1438Y501D01*
X1434Y501D01*
X1434Y503D01*
X1412Y503D01*
G37*
D02*
G36*
X474Y499D02*
X474Y497D01*
X1442Y497D01*
X1442Y499D01*
X474Y499D01*
G37*
D02*
G36*
X474Y499D02*
X474Y497D01*
X1442Y497D01*
X1442Y499D01*
X474Y499D01*
G37*
D02*
G36*
X476Y497D02*
X476Y495D01*
X478Y495D01*
X478Y493D01*
X480Y493D01*
X480Y491D01*
X482Y491D01*
X482Y489D01*
X484Y489D01*
X484Y487D01*
X486Y487D01*
X486Y485D01*
X488Y485D01*
X488Y483D01*
X490Y483D01*
X490Y481D01*
X492Y481D01*
X492Y479D01*
X494Y479D01*
X494Y477D01*
X496Y477D01*
X496Y475D01*
X498Y475D01*
X498Y473D01*
X500Y473D01*
X500Y471D01*
X502Y471D01*
X502Y469D01*
X504Y469D01*
X504Y467D01*
X506Y467D01*
X506Y465D01*
X508Y465D01*
X508Y463D01*
X510Y463D01*
X510Y461D01*
X512Y461D01*
X512Y457D01*
X514Y457D01*
X514Y453D01*
X516Y453D01*
X516Y303D01*
X518Y303D01*
X518Y301D01*
X520Y301D01*
X520Y299D01*
X522Y299D01*
X522Y297D01*
X524Y297D01*
X524Y295D01*
X526Y295D01*
X526Y293D01*
X528Y293D01*
X528Y291D01*
X530Y291D01*
X530Y289D01*
X532Y289D01*
X532Y287D01*
X534Y287D01*
X534Y285D01*
X536Y285D01*
X536Y283D01*
X540Y283D01*
X540Y281D01*
X542Y281D01*
X542Y279D01*
X544Y279D01*
X544Y277D01*
X546Y277D01*
X546Y275D01*
X548Y275D01*
X548Y273D01*
X550Y273D01*
X550Y271D01*
X552Y271D01*
X552Y269D01*
X554Y269D01*
X554Y267D01*
X556Y267D01*
X556Y265D01*
X558Y265D01*
X558Y263D01*
X560Y263D01*
X560Y261D01*
X562Y261D01*
X562Y259D01*
X564Y259D01*
X564Y257D01*
X566Y257D01*
X566Y255D01*
X568Y255D01*
X568Y253D01*
X570Y253D01*
X570Y251D01*
X572Y251D01*
X572Y249D01*
X574Y249D01*
X574Y247D01*
X576Y247D01*
X576Y245D01*
X578Y245D01*
X578Y243D01*
X580Y243D01*
X580Y241D01*
X582Y241D01*
X582Y239D01*
X584Y239D01*
X584Y237D01*
X586Y237D01*
X586Y235D01*
X588Y235D01*
X588Y233D01*
X590Y233D01*
X590Y231D01*
X592Y231D01*
X592Y229D01*
X594Y229D01*
X594Y227D01*
X596Y227D01*
X596Y225D01*
X1942Y225D01*
X1942Y227D01*
X1936Y227D01*
X1936Y229D01*
X1932Y229D01*
X1932Y231D01*
X1930Y231D01*
X1930Y233D01*
X1928Y233D01*
X1928Y235D01*
X1926Y235D01*
X1926Y237D01*
X1924Y237D01*
X1924Y241D01*
X1922Y241D01*
X1922Y243D01*
X1920Y243D01*
X1920Y245D01*
X1918Y245D01*
X1918Y247D01*
X1916Y247D01*
X1916Y251D01*
X1914Y251D01*
X1914Y253D01*
X1912Y253D01*
X1912Y255D01*
X1910Y255D01*
X1910Y257D01*
X1908Y257D01*
X1908Y261D01*
X1906Y261D01*
X1906Y263D01*
X1904Y263D01*
X1904Y265D01*
X1902Y265D01*
X1902Y267D01*
X1900Y267D01*
X1900Y269D01*
X1898Y269D01*
X1898Y273D01*
X1896Y273D01*
X1896Y275D01*
X1894Y275D01*
X1894Y277D01*
X1892Y277D01*
X1892Y279D01*
X1890Y279D01*
X1890Y283D01*
X1888Y283D01*
X1888Y285D01*
X1886Y285D01*
X1886Y287D01*
X1884Y287D01*
X1884Y289D01*
X1882Y289D01*
X1882Y293D01*
X1880Y293D01*
X1880Y295D01*
X1878Y295D01*
X1878Y297D01*
X1876Y297D01*
X1876Y299D01*
X1874Y299D01*
X1874Y303D01*
X1872Y303D01*
X1872Y305D01*
X1870Y305D01*
X1870Y307D01*
X1868Y307D01*
X1868Y309D01*
X1866Y309D01*
X1866Y313D01*
X1864Y313D01*
X1864Y315D01*
X1862Y315D01*
X1862Y317D01*
X1860Y317D01*
X1860Y319D01*
X1858Y319D01*
X1858Y323D01*
X1856Y323D01*
X1856Y325D01*
X1854Y325D01*
X1854Y327D01*
X1852Y327D01*
X1852Y329D01*
X1850Y329D01*
X1850Y333D01*
X1848Y333D01*
X1848Y335D01*
X1846Y335D01*
X1846Y337D01*
X1844Y337D01*
X1844Y339D01*
X1842Y339D01*
X1842Y341D01*
X1840Y341D01*
X1840Y345D01*
X1838Y345D01*
X1838Y347D01*
X1836Y347D01*
X1836Y349D01*
X1834Y349D01*
X1834Y351D01*
X1832Y351D01*
X1832Y355D01*
X1830Y355D01*
X1830Y357D01*
X1828Y357D01*
X1828Y359D01*
X1826Y359D01*
X1826Y361D01*
X1824Y361D01*
X1824Y365D01*
X1822Y365D01*
X1822Y367D01*
X1820Y367D01*
X1820Y369D01*
X1818Y369D01*
X1818Y371D01*
X1816Y371D01*
X1816Y375D01*
X1814Y375D01*
X1814Y377D01*
X1812Y377D01*
X1812Y379D01*
X1810Y379D01*
X1810Y381D01*
X1808Y381D01*
X1808Y385D01*
X1806Y385D01*
X1806Y387D01*
X1804Y387D01*
X1804Y389D01*
X1802Y389D01*
X1802Y391D01*
X1800Y391D01*
X1800Y395D01*
X1798Y395D01*
X1798Y397D01*
X1796Y397D01*
X1796Y399D01*
X1794Y399D01*
X1794Y401D01*
X1792Y401D01*
X1792Y403D01*
X1790Y403D01*
X1790Y407D01*
X1788Y407D01*
X1788Y409D01*
X1786Y409D01*
X1786Y411D01*
X1784Y411D01*
X1784Y413D01*
X1782Y413D01*
X1782Y417D01*
X1780Y417D01*
X1780Y419D01*
X1778Y419D01*
X1778Y421D01*
X1776Y421D01*
X1776Y423D01*
X1774Y423D01*
X1774Y427D01*
X1772Y427D01*
X1772Y429D01*
X1770Y429D01*
X1770Y431D01*
X1768Y431D01*
X1768Y433D01*
X1766Y433D01*
X1766Y437D01*
X1764Y437D01*
X1764Y439D01*
X1762Y439D01*
X1762Y441D01*
X1760Y441D01*
X1760Y443D01*
X1758Y443D01*
X1758Y447D01*
X1756Y447D01*
X1756Y449D01*
X1754Y449D01*
X1754Y451D01*
X1752Y451D01*
X1752Y453D01*
X1750Y453D01*
X1750Y457D01*
X1748Y457D01*
X1748Y459D01*
X1746Y459D01*
X1746Y461D01*
X1744Y461D01*
X1744Y463D01*
X1742Y463D01*
X1742Y467D01*
X1740Y467D01*
X1740Y469D01*
X1738Y469D01*
X1738Y471D01*
X1736Y471D01*
X1736Y473D01*
X1490Y473D01*
X1490Y475D01*
X1484Y475D01*
X1484Y477D01*
X1480Y477D01*
X1480Y479D01*
X1476Y479D01*
X1476Y481D01*
X1472Y481D01*
X1472Y483D01*
X1468Y483D01*
X1468Y485D01*
X1464Y485D01*
X1464Y487D01*
X1460Y487D01*
X1460Y489D01*
X1456Y489D01*
X1456Y491D01*
X1452Y491D01*
X1452Y493D01*
X1448Y493D01*
X1448Y495D01*
X1446Y495D01*
X1446Y497D01*
X476Y497D01*
G37*
D02*
G36*
X2334Y421D02*
X2334Y419D01*
X2332Y419D01*
X2332Y417D01*
X2330Y417D01*
X2330Y413D01*
X2328Y413D01*
X2328Y411D01*
X2324Y411D01*
X2324Y409D01*
X2322Y409D01*
X2322Y407D01*
X2320Y407D01*
X2320Y405D01*
X2316Y405D01*
X2316Y403D01*
X2312Y403D01*
X2312Y401D01*
X2304Y401D01*
X2304Y399D01*
X2372Y399D01*
X2372Y405D01*
X2368Y405D01*
X2368Y407D01*
X2364Y407D01*
X2364Y409D01*
X2362Y409D01*
X2362Y411D01*
X2360Y411D01*
X2360Y413D01*
X2358Y413D01*
X2358Y415D01*
X2356Y415D01*
X2356Y417D01*
X2354Y417D01*
X2354Y421D01*
X2334Y421D01*
G37*
D02*
G36*
X2434Y421D02*
X2434Y419D01*
X2432Y419D01*
X2432Y417D01*
X2430Y417D01*
X2430Y413D01*
X2428Y413D01*
X2428Y411D01*
X2424Y411D01*
X2424Y409D01*
X2422Y409D01*
X2422Y407D01*
X2420Y407D01*
X2420Y405D01*
X2416Y405D01*
X2416Y399D01*
X2482Y399D01*
X2482Y401D01*
X2476Y401D01*
X2476Y403D01*
X2472Y403D01*
X2472Y405D01*
X2468Y405D01*
X2468Y407D01*
X2464Y407D01*
X2464Y409D01*
X2462Y409D01*
X2462Y411D01*
X2460Y411D01*
X2460Y413D01*
X2458Y413D01*
X2458Y415D01*
X2456Y415D01*
X2456Y417D01*
X2454Y417D01*
X2454Y421D01*
X2434Y421D01*
G37*
D02*
G36*
X1852Y399D02*
X1852Y397D01*
X2372Y397D01*
X2372Y399D01*
X1852Y399D01*
G37*
D02*
G36*
X1852Y399D02*
X1852Y397D01*
X2372Y397D01*
X2372Y399D01*
X1852Y399D01*
G37*
D02*
G36*
X2416Y399D02*
X2416Y397D01*
X2924Y397D01*
X2924Y399D01*
X2416Y399D01*
G37*
D02*
G36*
X2416Y399D02*
X2416Y397D01*
X2924Y397D01*
X2924Y399D01*
X2416Y399D01*
G37*
D02*
G36*
X1854Y397D02*
X1854Y395D01*
X1856Y395D01*
X1856Y393D01*
X1858Y393D01*
X1858Y389D01*
X1860Y389D01*
X1860Y387D01*
X1862Y387D01*
X1862Y385D01*
X1864Y385D01*
X1864Y383D01*
X1866Y383D01*
X1866Y379D01*
X1868Y379D01*
X1868Y377D01*
X1870Y377D01*
X1870Y375D01*
X1872Y375D01*
X1872Y373D01*
X1874Y373D01*
X1874Y369D01*
X1876Y369D01*
X1876Y367D01*
X1878Y367D01*
X1878Y365D01*
X1880Y365D01*
X1880Y363D01*
X1882Y363D01*
X1882Y359D01*
X1884Y359D01*
X1884Y357D01*
X1886Y357D01*
X1886Y355D01*
X1888Y355D01*
X1888Y353D01*
X1890Y353D01*
X1890Y351D01*
X1892Y351D01*
X1892Y347D01*
X1894Y347D01*
X1894Y345D01*
X1896Y345D01*
X1896Y343D01*
X1898Y343D01*
X1898Y341D01*
X1900Y341D01*
X1900Y337D01*
X1902Y337D01*
X1902Y335D01*
X1904Y335D01*
X1904Y333D01*
X1906Y333D01*
X1906Y331D01*
X1908Y331D01*
X1908Y327D01*
X1910Y327D01*
X1910Y325D01*
X1912Y325D01*
X1912Y323D01*
X1914Y323D01*
X1914Y321D01*
X1916Y321D01*
X1916Y317D01*
X1918Y317D01*
X1918Y315D01*
X1920Y315D01*
X1920Y313D01*
X1922Y313D01*
X1922Y311D01*
X1924Y311D01*
X1924Y307D01*
X1926Y307D01*
X1926Y305D01*
X1928Y305D01*
X1928Y303D01*
X1930Y303D01*
X1930Y301D01*
X1932Y301D01*
X1932Y297D01*
X1934Y297D01*
X1934Y295D01*
X1936Y295D01*
X1936Y293D01*
X1938Y293D01*
X1938Y291D01*
X1940Y291D01*
X1940Y287D01*
X1942Y287D01*
X1942Y285D01*
X1944Y285D01*
X1944Y283D01*
X1946Y283D01*
X1946Y281D01*
X1948Y281D01*
X1948Y279D01*
X1950Y279D01*
X1950Y275D01*
X1952Y275D01*
X1952Y273D01*
X1954Y273D01*
X1954Y271D01*
X1956Y271D01*
X1956Y269D01*
X2284Y269D01*
X2284Y271D01*
X2286Y271D01*
X2286Y273D01*
X2288Y273D01*
X2288Y275D01*
X2290Y275D01*
X2290Y277D01*
X2292Y277D01*
X2292Y279D01*
X2294Y279D01*
X2294Y281D01*
X2296Y281D01*
X2296Y283D01*
X2298Y283D01*
X2298Y285D01*
X2300Y285D01*
X2300Y287D01*
X2302Y287D01*
X2302Y289D01*
X2304Y289D01*
X2304Y291D01*
X2306Y291D01*
X2306Y293D01*
X2308Y293D01*
X2308Y295D01*
X2310Y295D01*
X2310Y297D01*
X2312Y297D01*
X2312Y299D01*
X2314Y299D01*
X2314Y301D01*
X2316Y301D01*
X2316Y303D01*
X2318Y303D01*
X2318Y305D01*
X2320Y305D01*
X2320Y307D01*
X2322Y307D01*
X2322Y309D01*
X2324Y309D01*
X2324Y311D01*
X2326Y311D01*
X2326Y313D01*
X2328Y313D01*
X2328Y315D01*
X2330Y315D01*
X2330Y317D01*
X2332Y317D01*
X2332Y319D01*
X2334Y319D01*
X2334Y321D01*
X2336Y321D01*
X2336Y323D01*
X2338Y323D01*
X2338Y325D01*
X2340Y325D01*
X2340Y327D01*
X2342Y327D01*
X2342Y329D01*
X2344Y329D01*
X2344Y331D01*
X2346Y331D01*
X2346Y333D01*
X2348Y333D01*
X2348Y335D01*
X2350Y335D01*
X2350Y337D01*
X2352Y337D01*
X2352Y339D01*
X2354Y339D01*
X2354Y341D01*
X2356Y341D01*
X2356Y343D01*
X2358Y343D01*
X2358Y345D01*
X2360Y345D01*
X2360Y347D01*
X2362Y347D01*
X2362Y349D01*
X2364Y349D01*
X2364Y351D01*
X2366Y351D01*
X2366Y353D01*
X2368Y353D01*
X2368Y355D01*
X2370Y355D01*
X2370Y357D01*
X2372Y357D01*
X2372Y397D01*
X1854Y397D01*
G37*
D02*
G36*
X2416Y397D02*
X2416Y343D01*
X2414Y343D01*
X2414Y337D01*
X2412Y337D01*
X2412Y335D01*
X2410Y335D01*
X2410Y331D01*
X2408Y331D01*
X2408Y329D01*
X2406Y329D01*
X2406Y327D01*
X2404Y327D01*
X2404Y325D01*
X2402Y325D01*
X2402Y323D01*
X2400Y323D01*
X2400Y321D01*
X2398Y321D01*
X2398Y319D01*
X2396Y319D01*
X2396Y317D01*
X2394Y317D01*
X2394Y315D01*
X2392Y315D01*
X2392Y313D01*
X2390Y313D01*
X2390Y311D01*
X2388Y311D01*
X2388Y309D01*
X2386Y309D01*
X2386Y307D01*
X2384Y307D01*
X2384Y305D01*
X2382Y305D01*
X2382Y303D01*
X2380Y303D01*
X2380Y301D01*
X2378Y301D01*
X2378Y299D01*
X2376Y299D01*
X2376Y297D01*
X2374Y297D01*
X2374Y295D01*
X2372Y295D01*
X2372Y293D01*
X2370Y293D01*
X2370Y291D01*
X2368Y291D01*
X2368Y289D01*
X2366Y289D01*
X2366Y287D01*
X2364Y287D01*
X2364Y285D01*
X2362Y285D01*
X2362Y283D01*
X2360Y283D01*
X2360Y281D01*
X2358Y281D01*
X2358Y279D01*
X2356Y279D01*
X2356Y277D01*
X2354Y277D01*
X2354Y275D01*
X2352Y275D01*
X2352Y273D01*
X2350Y273D01*
X2350Y271D01*
X2348Y271D01*
X2348Y269D01*
X2346Y269D01*
X2346Y267D01*
X2344Y267D01*
X2344Y265D01*
X2342Y265D01*
X2342Y263D01*
X2340Y263D01*
X2340Y261D01*
X2338Y261D01*
X2338Y259D01*
X2336Y259D01*
X2336Y257D01*
X2334Y257D01*
X2334Y255D01*
X2332Y255D01*
X2332Y253D01*
X2330Y253D01*
X2330Y251D01*
X2328Y251D01*
X2328Y249D01*
X2326Y249D01*
X2326Y247D01*
X2324Y247D01*
X2324Y245D01*
X2322Y245D01*
X2322Y243D01*
X2320Y243D01*
X2320Y241D01*
X2318Y241D01*
X2318Y239D01*
X2316Y239D01*
X2316Y237D01*
X2314Y237D01*
X2314Y235D01*
X2312Y235D01*
X2312Y233D01*
X2310Y233D01*
X2310Y231D01*
X2306Y231D01*
X2306Y229D01*
X2304Y229D01*
X2304Y227D01*
X2298Y227D01*
X2298Y225D01*
X2892Y225D01*
X2892Y227D01*
X2894Y227D01*
X2894Y229D01*
X2896Y229D01*
X2896Y231D01*
X2898Y231D01*
X2898Y233D01*
X2900Y233D01*
X2900Y235D01*
X2902Y235D01*
X2902Y237D01*
X2904Y237D01*
X2904Y239D01*
X2906Y239D01*
X2906Y241D01*
X2908Y241D01*
X2908Y243D01*
X2910Y243D01*
X2910Y245D01*
X2912Y245D01*
X2912Y247D01*
X2914Y247D01*
X2914Y249D01*
X2916Y249D01*
X2916Y251D01*
X2918Y251D01*
X2918Y253D01*
X2920Y253D01*
X2920Y255D01*
X2922Y255D01*
X2922Y257D01*
X2924Y257D01*
X2924Y397D01*
X2416Y397D01*
G37*
D02*
G36*
X40Y255D02*
X40Y215D01*
X60Y215D01*
X60Y217D01*
X62Y217D01*
X62Y219D01*
X64Y219D01*
X64Y223D01*
X66Y223D01*
X66Y225D01*
X68Y225D01*
X68Y227D01*
X72Y227D01*
X72Y229D01*
X74Y229D01*
X74Y231D01*
X76Y231D01*
X76Y233D01*
X78Y233D01*
X78Y235D01*
X82Y235D01*
X82Y237D01*
X84Y237D01*
X84Y239D01*
X88Y239D01*
X88Y241D01*
X90Y241D01*
X90Y243D01*
X94Y243D01*
X94Y245D01*
X98Y245D01*
X98Y247D01*
X102Y247D01*
X102Y249D01*
X108Y249D01*
X108Y251D01*
X116Y251D01*
X116Y253D01*
X124Y253D01*
X124Y255D01*
X40Y255D01*
G37*
D02*
G36*
X2968Y255D02*
X2968Y243D01*
X2966Y243D01*
X2966Y237D01*
X2964Y237D01*
X2964Y235D01*
X2962Y235D01*
X2962Y233D01*
X2960Y233D01*
X2960Y231D01*
X2958Y231D01*
X2958Y229D01*
X2956Y229D01*
X2956Y227D01*
X2954Y227D01*
X2954Y225D01*
X2952Y225D01*
X2952Y223D01*
X2950Y223D01*
X2950Y221D01*
X2948Y221D01*
X2948Y219D01*
X2946Y219D01*
X2946Y217D01*
X2944Y217D01*
X2944Y215D01*
X2942Y215D01*
X2942Y213D01*
X2940Y213D01*
X2940Y211D01*
X2938Y211D01*
X2938Y209D01*
X2936Y209D01*
X2936Y207D01*
X2934Y207D01*
X2934Y205D01*
X2932Y205D01*
X2932Y203D01*
X2930Y203D01*
X2930Y201D01*
X2928Y201D01*
X2928Y199D01*
X2926Y199D01*
X2926Y197D01*
X2924Y197D01*
X2924Y195D01*
X2922Y195D01*
X2922Y193D01*
X2920Y193D01*
X2920Y191D01*
X2918Y191D01*
X2918Y189D01*
X2916Y189D01*
X2916Y187D01*
X2914Y187D01*
X2914Y185D01*
X2912Y185D01*
X2912Y183D01*
X2910Y183D01*
X2910Y181D01*
X2908Y181D01*
X2908Y179D01*
X2906Y179D01*
X2906Y177D01*
X2904Y177D01*
X2904Y175D01*
X2902Y175D01*
X2902Y173D01*
X2900Y173D01*
X2900Y171D01*
X2898Y171D01*
X2898Y169D01*
X2896Y169D01*
X2896Y167D01*
X2894Y167D01*
X2894Y165D01*
X2892Y165D01*
X2892Y163D01*
X2890Y163D01*
X2890Y161D01*
X2888Y161D01*
X2888Y159D01*
X2886Y159D01*
X2886Y157D01*
X2884Y157D01*
X2884Y155D01*
X2882Y155D01*
X2882Y153D01*
X2880Y153D01*
X2880Y151D01*
X2878Y151D01*
X2878Y149D01*
X2876Y149D01*
X2876Y147D01*
X2874Y147D01*
X2874Y145D01*
X2872Y145D01*
X2872Y143D01*
X2870Y143D01*
X2870Y141D01*
X2868Y141D01*
X2868Y139D01*
X2866Y139D01*
X2866Y137D01*
X2864Y137D01*
X2864Y135D01*
X2862Y135D01*
X2862Y133D01*
X2860Y133D01*
X2860Y131D01*
X2858Y131D01*
X2858Y129D01*
X2856Y129D01*
X2856Y127D01*
X2850Y127D01*
X2850Y125D01*
X3188Y125D01*
X3188Y129D01*
X3186Y129D01*
X3186Y167D01*
X3188Y167D01*
X3188Y175D01*
X3190Y175D01*
X3190Y183D01*
X3192Y183D01*
X3192Y187D01*
X3194Y187D01*
X3194Y193D01*
X3196Y193D01*
X3196Y197D01*
X3198Y197D01*
X3198Y201D01*
X3200Y201D01*
X3200Y203D01*
X3202Y203D01*
X3202Y207D01*
X3204Y207D01*
X3204Y209D01*
X3206Y209D01*
X3206Y213D01*
X3208Y213D01*
X3208Y215D01*
X3210Y215D01*
X3210Y217D01*
X3212Y217D01*
X3212Y219D01*
X3214Y219D01*
X3214Y223D01*
X3216Y223D01*
X3216Y225D01*
X3218Y225D01*
X3218Y227D01*
X3222Y227D01*
X3222Y229D01*
X3224Y229D01*
X3224Y231D01*
X3226Y231D01*
X3226Y233D01*
X3228Y233D01*
X3228Y235D01*
X3232Y235D01*
X3232Y237D01*
X3234Y237D01*
X3234Y239D01*
X3238Y239D01*
X3238Y241D01*
X3240Y241D01*
X3240Y243D01*
X3244Y243D01*
X3244Y245D01*
X3248Y245D01*
X3248Y247D01*
X3252Y247D01*
X3252Y249D01*
X3258Y249D01*
X3258Y251D01*
X3266Y251D01*
X3266Y253D01*
X3274Y253D01*
X3274Y255D01*
X2968Y255D01*
G37*
D02*
G36*
X598Y225D02*
X598Y223D01*
X2890Y223D01*
X2890Y225D01*
X598Y225D01*
G37*
D02*
G36*
X598Y225D02*
X598Y223D01*
X2890Y223D01*
X2890Y225D01*
X598Y225D01*
G37*
D02*
G36*
X600Y223D02*
X600Y221D01*
X602Y221D01*
X602Y219D01*
X604Y219D01*
X604Y217D01*
X606Y217D01*
X606Y215D01*
X608Y215D01*
X608Y213D01*
X610Y213D01*
X610Y211D01*
X612Y211D01*
X612Y209D01*
X614Y209D01*
X614Y207D01*
X616Y207D01*
X616Y205D01*
X618Y205D01*
X618Y203D01*
X622Y203D01*
X622Y201D01*
X624Y201D01*
X624Y199D01*
X626Y199D01*
X626Y197D01*
X628Y197D01*
X628Y195D01*
X630Y195D01*
X630Y193D01*
X632Y193D01*
X632Y191D01*
X634Y191D01*
X634Y189D01*
X636Y189D01*
X636Y187D01*
X638Y187D01*
X638Y185D01*
X640Y185D01*
X640Y183D01*
X642Y183D01*
X642Y181D01*
X644Y181D01*
X644Y179D01*
X646Y179D01*
X646Y177D01*
X648Y177D01*
X648Y175D01*
X650Y175D01*
X650Y173D01*
X652Y173D01*
X652Y171D01*
X654Y171D01*
X654Y169D01*
X2836Y169D01*
X2836Y171D01*
X2838Y171D01*
X2838Y173D01*
X2840Y173D01*
X2840Y175D01*
X2842Y175D01*
X2842Y177D01*
X2844Y177D01*
X2844Y179D01*
X2846Y179D01*
X2846Y181D01*
X2848Y181D01*
X2848Y183D01*
X2850Y183D01*
X2850Y185D01*
X2852Y185D01*
X2852Y187D01*
X2854Y187D01*
X2854Y189D01*
X2856Y189D01*
X2856Y191D01*
X2858Y191D01*
X2858Y193D01*
X2860Y193D01*
X2860Y195D01*
X2862Y195D01*
X2862Y197D01*
X2864Y197D01*
X2864Y199D01*
X2866Y199D01*
X2866Y201D01*
X2868Y201D01*
X2868Y203D01*
X2870Y203D01*
X2870Y205D01*
X2872Y205D01*
X2872Y207D01*
X2874Y207D01*
X2874Y209D01*
X2876Y209D01*
X2876Y211D01*
X2878Y211D01*
X2878Y213D01*
X2880Y213D01*
X2880Y215D01*
X2882Y215D01*
X2882Y217D01*
X2884Y217D01*
X2884Y219D01*
X2886Y219D01*
X2886Y221D01*
X2888Y221D01*
X2888Y223D01*
X600Y223D01*
G37*
D02*
G36*
X250Y125D02*
X250Y123D01*
X3188Y123D01*
X3188Y125D01*
X250Y125D01*
G37*
D02*
G36*
X250Y125D02*
X250Y123D01*
X3188Y123D01*
X3188Y125D01*
X250Y125D01*
G37*
D02*
G36*
X248Y123D02*
X248Y115D01*
X246Y115D01*
X246Y109D01*
X244Y109D01*
X244Y105D01*
X242Y105D01*
X242Y101D01*
X240Y101D01*
X240Y97D01*
X238Y97D01*
X238Y93D01*
X236Y93D01*
X236Y89D01*
X234Y89D01*
X234Y87D01*
X232Y87D01*
X232Y83D01*
X230Y83D01*
X230Y81D01*
X228Y81D01*
X228Y79D01*
X226Y79D01*
X226Y77D01*
X224Y77D01*
X224Y73D01*
X222Y73D01*
X222Y71D01*
X220Y71D01*
X220Y69D01*
X218Y69D01*
X218Y67D01*
X214Y67D01*
X214Y65D01*
X212Y65D01*
X212Y63D01*
X210Y63D01*
X210Y61D01*
X208Y61D01*
X208Y41D01*
X3230Y41D01*
X3230Y61D01*
X3228Y61D01*
X3228Y63D01*
X3224Y63D01*
X3224Y65D01*
X3222Y65D01*
X3222Y67D01*
X3220Y67D01*
X3220Y69D01*
X3218Y69D01*
X3218Y71D01*
X3216Y71D01*
X3216Y73D01*
X3214Y73D01*
X3214Y75D01*
X3212Y75D01*
X3212Y77D01*
X3210Y77D01*
X3210Y79D01*
X3208Y79D01*
X3208Y83D01*
X3206Y83D01*
X3206Y85D01*
X3204Y85D01*
X3204Y89D01*
X3202Y89D01*
X3202Y91D01*
X3200Y91D01*
X3200Y95D01*
X3198Y95D01*
X3198Y99D01*
X3196Y99D01*
X3196Y103D01*
X3194Y103D01*
X3194Y107D01*
X3192Y107D01*
X3192Y113D01*
X3190Y113D01*
X3190Y119D01*
X3188Y119D01*
X3188Y123D01*
X248Y123D01*
G37*
D02*
G36*
X2510Y772D02*
X2542Y772D01*
X2542Y727D01*
X2510Y727D01*
X2510Y772D01*
G37*
D02*
G36*
X2510Y872D02*
X2542Y872D01*
X2542Y827D01*
X2510Y827D01*
X2510Y872D01*
G37*
D02*
G36*
X2510Y672D02*
X2542Y672D01*
X2542Y627D01*
X2510Y627D01*
X2510Y672D01*
G37*
D02*
G36*
X2469Y431D02*
X2514Y431D01*
X2514Y399D01*
X2469Y399D01*
X2469Y431D01*
G37*
D02*
G36*
X2510Y472D02*
X2542Y472D01*
X2542Y427D01*
X2510Y427D01*
X2510Y472D01*
G37*
D02*
G36*
X2510Y972D02*
X2542Y972D01*
X2542Y927D01*
X2510Y927D01*
X2510Y972D01*
G37*
D02*
G36*
X2510Y572D02*
X2542Y572D01*
X2542Y527D01*
X2510Y527D01*
X2510Y572D01*
G37*
D02*
G36*
X2510Y1072D02*
X2542Y1072D01*
X2542Y1027D01*
X2510Y1027D01*
X2510Y1072D01*
G37*
D02*
G36*
X2510Y1572D02*
X2542Y1572D01*
X2542Y1527D01*
X2510Y1527D01*
X2510Y1572D01*
G37*
D02*
G36*
X2510Y1172D02*
X2542Y1172D01*
X2542Y1127D01*
X2510Y1127D01*
X2510Y1172D01*
G37*
D02*
G36*
X3067Y1031D02*
X3112Y1031D01*
X3112Y1001D01*
X3067Y1001D01*
X3067Y1031D01*
G37*
D02*
G36*
X3112Y1076D02*
X3144Y1076D01*
X3144Y1031D01*
X3112Y1031D01*
X3112Y1076D01*
G37*
D02*
G36*
X2510Y1472D02*
X2542Y1472D01*
X2542Y1427D01*
X2510Y1427D01*
X2510Y1472D01*
G37*
D02*
G36*
X2510Y1372D02*
X2542Y1372D01*
X2542Y1327D01*
X2510Y1327D01*
X2510Y1372D01*
G37*
D02*
G36*
X2510Y1272D02*
X2542Y1272D01*
X2542Y1227D01*
X2510Y1227D01*
X2510Y1272D01*
G37*
D02*
G36*
X2510Y1672D02*
X2542Y1672D01*
X2542Y1627D01*
X2510Y1627D01*
X2510Y1672D01*
G37*
D02*
G36*
X2469Y1901D02*
X2514Y1901D01*
X2514Y1869D01*
X2469Y1869D01*
X2469Y1901D01*
G37*
D02*
G36*
X2510Y1872D02*
X2542Y1872D01*
X2542Y1827D01*
X2510Y1827D01*
X2510Y1872D01*
G37*
D02*
G36*
X2510Y1772D02*
X2542Y1772D01*
X2542Y1727D01*
X2510Y1727D01*
X2510Y1772D01*
G37*
D02*
G36*
X3067Y1605D02*
X3112Y1605D01*
X3112Y1577D01*
X3067Y1577D01*
X3067Y1605D01*
G37*
D02*
G36*
X3067Y1531D02*
X3112Y1531D01*
X3112Y1501D01*
X3067Y1501D01*
X3067Y1531D01*
G37*
D02*
G36*
X3040Y1576D02*
X3066Y1576D01*
X3066Y1531D01*
X3040Y1531D01*
X3040Y1576D01*
G37*
D02*
G36*
X3112Y1576D02*
X3144Y1576D01*
X3144Y1531D01*
X3112Y1531D01*
X3112Y1576D01*
G37*
D02*
G36*
X1340Y672D02*
X1372Y672D01*
X1372Y627D01*
X1340Y627D01*
X1340Y672D01*
G37*
D02*
G36*
X1410Y672D02*
X1442Y672D01*
X1442Y627D01*
X1410Y627D01*
X1410Y672D01*
G37*
D02*
G04 End of Copper1*
M02*