; NON-PLATED HOLES START AT T1
; THROUGH (PLATED) HOLES START AT T100
M48
INCH
T100C0.047244
T101C0.118110
T102C0.038000
%
T100
X030935Y012473
X030935Y010505
X030935Y015505
X030935Y017473
T101
X001435Y001473
X032935Y001473
X001435Y025973
X032935Y025973
T102
X024935Y006473
X023935Y008473
X022935Y007473
X023935Y007473
X003935Y007473
X024935Y013473
X024935Y016473
X022935Y009473
X023935Y009473
X013935Y008473
X003935Y010473
X013935Y005473
X022935Y018473
X003935Y006473
X013935Y019473
X023935Y018473
X013935Y016473
X023935Y005473
X013935Y014473
X003935Y017473
X003935Y015473
X022935Y004473
X024935Y007473
X003935Y014473
X022935Y010473
X023935Y012473
X013935Y011473
X013935Y010473
X022935Y005473
X003935Y013473
X023935Y011473
X022935Y015473
X003935Y016473
X022935Y013473
X013935Y007473
X013935Y009473
X024935Y005473
X022935Y012473
X023935Y014473
X024935Y012473
X003935Y012473
X013935Y017473
X003935Y019473
X022935Y011473
X024935Y011473
X023935Y016473
X003935Y018473
X023935Y004473
X022935Y017473
X013935Y015473
X022935Y016473
X003935Y011473
X013935Y012473
X023935Y013473
X024935Y009473
X022935Y014473
X023935Y017473
X024935Y004473
X003935Y005473
X003935Y009473
X024935Y010473
X024935Y017473
X024935Y018473
X023935Y010473
X023935Y015473
X022935Y006473
X024935Y014473
X013935Y013473
X023935Y006473
X013935Y018473
X024935Y015473
X024935Y008473
X013935Y006473
X022935Y008473
X003935Y008473
T00
M30
