<svg xmlns="http://www.w3.org/2000/svg" height="933pt" version="1.1" viewBox="0 0 933.75046 933" width="933pt">
<g id="surface1">
<path d="M 923.328125 452.527344 L 793.875 407.222656 C 742.214844 389.132812 685.425781 392.757812 636.488281 417.261719 C 587.542969 441.765625 550.609375 485.042969 534.125 537.234375 L 500.25 644.5 L 466.898438 669.507812 L 466.898438 445.503906 C 466.867188 415.644531 481.808594 387.75 506.664062 371.226562 L 506.496094 370.976562 C 507.390625 370.5 508.238281 369.921875 509.019531 369.277344 C 571.535156 306.757812 604.195312 220.394531 598.703125 132.152344 L 591.398438 14.960938 C 590.9375 7.585938 585.359375 1.554688 578.042969 0.511719 C 570.75 -0.453125 563.757812 3.777344 561.222656 10.691406 L 510.894531 151.554688 C 492.078125 204.179688 482.457031 259.640625 482.464844 315.53125 L 482.464844 350.59375 C 453.046875 373.285156 435.800781 408.351562 435.777344 445.515625 L 435.777344 476.347656 L 419.957031 460.511719 C 417.292969 344.808594 342.269531 243.210938 232.433594 206.660156 L 129.46875 172.433594 C 124.144531 170.648438 118.28125 171.878906 114.113281 175.625 C 109.949219 179.394531 108.121094 185.101562 109.347656 190.582031 L 126.46875 267.789062 C 153.882812 393.769531 265.6875 483.417969 394.625 482.773438 L 398.21875 482.773438 L 435.777344 520.339844 L 435.777344 862.191406 L 404.65625 846.625 L 404.65625 814.617188 C 404.65625 736.339844 367.019531 662.820312 303.511719 617.058594 C 239.992188 571.289062 158.355469 558.832031 84.089844 583.59375 L 10.695312 608.058594 C 4.3125 610.160156 0 616.121094 0 622.84375 C 0 629.5625 4.3125 635.523438 10.695312 637.628906 L 27.371094 643.1875 C 107.238281 669.742188 181.78125 710.273438 247.484375 762.886719 L 379.359375 868.382812 C 380.261719 869.007812 381.21875 869.53125 382.230469 869.945312 L 382.136719 870.15625 L 435.777344 897.003906 L 435.777344 934.058594 L 466.898438 934.058594 L 466.898438 708.414062 L 522.925781 666.390625 L 522.757812 666.175781 C 523.394531 665.808594 524.003906 665.390625 524.585938 664.949219 C 623.144531 566.730469 751.480469 503.964844 889.507812 486.472656 L 920.128906 482.652344 C 927.296875 481.742188 932.898438 476.027344 933.664062 468.855469 C 934.425781 461.671875 930.148438 454.910156 923.328125 452.527344 Z M 923.328125 452.527344 " style=" stroke:none;fill-rule:nonzero;fill:rgb(0%,0%,0%);fill-opacity:1;" />
</g>
</svg>